<svg width="45" height="44" viewBox="0 0 45 44" fill="none" xmlns="http://www.w3.org/2000/svg">
<path fill-rule="evenodd" clip-rule="evenodd" d="M22.5 0C10.0736 0 0 9.83284 0 21.9623C0 34.0917 10.0736 43.9245 22.5 43.9245C34.9264 43.9245 45 34.0917 45 21.9623C45 9.83284 34.9264 0 22.5 0ZM17.5531 10.3198C18.8331 10.263 19.2421 10.2491 22.5011 10.2491H22.4974C25.7574 10.2491 26.1649 10.263 27.4449 10.3198C28.7224 10.3769 29.5949 10.5743 30.36 10.864C31.15 11.1629 31.8175 11.5631 32.485 12.2147C33.1525 12.8658 33.5625 13.5193 33.87 14.2897C34.165 15.0344 34.3675 15.8856 34.4275 17.1326C34.485 18.382 34.5 18.7812 34.5 21.9624C34.5 25.1435 34.485 25.5418 34.4275 26.7912C34.3675 28.0377 34.165 28.8891 33.87 29.6341C33.5625 30.4043 33.1525 31.0578 32.485 31.7088C31.8182 32.3604 31.1497 32.7616 30.3607 33.0607C29.5972 33.3504 28.7242 33.5478 27.4467 33.6049C26.1667 33.6618 25.7589 33.6757 22.4996 33.6757C19.2408 33.6757 18.8321 33.6618 17.5521 33.6049C16.2748 33.5478 15.4026 33.3504 14.639 33.0607C13.8503 32.7616 13.1808 32.3604 12.514 31.7088C11.8468 31.0578 11.4368 30.4043 11.13 29.6339C10.8335 28.8891 10.6313 28.0379 10.5725 26.7909C10.5145 25.5415 10.5 25.1435 10.5 21.9624C10.5 18.7812 10.515 18.3818 10.5723 17.1323C10.6298 15.8858 10.8323 15.0344 11.1298 14.2894C11.4373 13.5193 11.8473 12.8658 12.5148 12.2147C13.1818 11.5634 13.8513 11.1632 14.6405 10.864C15.4036 10.5743 16.2756 10.3769 17.5531 10.3198Z" fill="#C4DCC6"/>
<path fill-rule="evenodd" clip-rule="evenodd" d="M21.4242 12.3599C21.6332 12.3595 21.8581 12.3596 22.1007 12.3597L22.5007 12.3599C25.7047 12.3599 26.0845 12.3711 27.3497 12.4272C28.5198 12.4794 29.1548 12.6703 29.5778 12.8306C30.1378 13.0429 30.537 13.2967 30.9568 13.7067C31.3768 14.1166 31.6368 14.5071 31.8548 15.0537C32.019 15.4661 32.2148 16.0859 32.268 17.228C32.3255 18.4627 32.338 18.8337 32.338 21.9597C32.338 25.0857 32.3255 25.4566 32.268 26.6914C32.2145 27.8334 32.019 28.4532 31.8548 28.8656C31.6373 29.4123 31.3768 29.8015 30.9568 30.2112C30.5368 30.6212 30.138 30.875 29.5778 31.0873C29.1553 31.2483 28.5198 31.4387 27.3497 31.4909C26.0847 31.547 25.7047 31.5592 22.5007 31.5592C19.2964 31.5592 18.9167 31.547 17.6516 31.4909C16.4816 31.4382 15.8466 31.2474 15.4234 31.087C14.8634 30.8747 14.4634 30.6209 14.0434 30.211C13.6233 29.801 13.3633 29.4115 13.1453 28.8647C12.9811 28.4523 12.7853 27.8324 12.7321 26.6904C12.6746 25.4556 12.6631 25.0847 12.6631 21.9567C12.6631 18.8288 12.6746 18.4598 12.7321 17.225C12.7856 16.083 12.9811 15.4632 13.1453 15.0503C13.3628 14.5036 13.6233 14.1132 14.0434 13.7032C14.4634 13.2933 14.8634 13.0395 15.4234 12.8267C15.8464 12.6656 16.4816 12.4753 17.6516 12.4228C18.7586 12.374 19.1877 12.3594 21.4242 12.3569V12.3599ZM28.9063 14.3048C28.1112 14.3048 27.4662 14.9336 27.4662 15.7099C27.4662 16.4859 28.1112 17.1155 28.9063 17.1155C29.7013 17.1155 30.3463 16.4859 30.3463 15.7099C30.3463 14.9339 29.7013 14.3043 28.9063 14.3043V14.3048ZM16.3381 21.9623C16.3381 18.6405 19.0973 15.9472 22.5004 15.9471C25.9037 15.9471 28.6623 18.6404 28.6623 21.9623C28.6623 25.2843 25.904 27.9764 22.5007 27.9764C19.0974 27.9764 16.3381 25.2843 16.3381 21.9623Z" fill="#C4DCC6"/>
<path d="M22.501 18.0579C24.71 18.0579 26.5011 19.8059 26.5011 21.9624C26.5011 24.1186 24.71 25.8668 22.501 25.8668C20.2917 25.8668 18.501 24.1186 18.501 21.9624C18.501 19.8059 20.2917 18.0579 22.501 18.0579V18.0579Z" fill="#C4DCC6"/>
</svg>
