<svg width="45" height="44" viewBox="0 0 45 44" fill="none" xmlns="http://www.w3.org/2000/svg">
<path fill-rule="evenodd" clip-rule="evenodd" d="M0 21.9623C0 34.0917 10.0736 43.9245 22.5 43.9245C34.9264 43.9245 45 34.0917 45 21.9623C45 9.83284 34.9264 0 22.5 0C10.0736 0 0 9.83284 0 21.9623ZM18.375 32.0283L18.7578 26.43L18.7575 26.4297L29.1909 17.2395C29.6488 16.8428 29.0909 16.6493 28.483 17.0091L15.6068 24.9384L10.045 23.244C8.84391 22.885 8.83528 22.0794 10.3147 21.5002L31.9878 13.3429C32.9777 12.9042 33.9331 13.5749 33.5552 15.0538L29.8643 32.0311C29.6065 33.2376 28.8597 33.5261 27.825 32.9688L22.2025 28.9142L19.5 31.4792C19.4915 31.4873 19.483 31.4954 19.4746 31.5034C19.1723 31.7906 18.9222 32.0283 18.375 32.0283Z" fill="#C4DCC6"/>
</svg>
