<svg width="390" height="1566" viewBox="0 0 390 1566" fill="none" xmlns="http://www.w3.org/2000/svg">
<path d="M390 1469.51C199.861 1464.35 92.1884 1458.01 0 1445V1566H390V1469.51Z" fill="#F8D03C"/>
<rect width="390" height="81" fill="#C4DCC6"/>
<path d="M390 77.6818C199.861 57.9531 92.1884 49.7328 0 0V351.478C59.6343 409.678 284.848 440.197 390 453.76V77.6818Z" fill="#004643"/>
<path d="M390 416.682C199.861 396.953 92.1884 388.733 0 339V690.478C59.6343 748.678 284.848 779.197 390 792.76V416.682Z" fill="#004643"/>
<path d="M390 742.682C199.861 722.953 92.1884 714.733 0 665V1016.48C59.6343 1074.68 284.848 1105.2 390 1118.76V742.682Z" fill="#004643"/>
<path d="M390 1084.68C199.861 1064.95 92.1884 1056.73 0 1007V1358.48C59.6343 1416.68 284.848 1447.2 390 1460.76V1084.68Z" fill="#004643"/>
<path d="M390 1189.68C199.861 1169.95 92.1884 1161.73 0 1112V1463.48C59.6343 1521.68 284.848 1552.2 390 1565.76V1189.68Z" fill="#004643"/>
</svg>
