<svg width="71" height="71" viewBox="0 0 71 71" fill="none" xmlns="http://www.w3.org/2000/svg">
<path fill-rule="evenodd" clip-rule="evenodd" d="M35.5 0C15.8939 0 0 15.8939 0 35.5C0 55.1061 15.8939 71 35.5 71C55.1061 71 71 55.1061 71 35.5C71 15.8939 55.1061 0 35.5 0ZM27.6948 16.6811C29.7144 16.5891 30.3597 16.5667 35.5018 16.5667H35.4959C40.6395 16.5667 41.2824 16.5891 43.302 16.6811C45.3176 16.7734 46.6943 17.0925 47.9013 17.5607C49.1477 18.0439 50.2009 18.6908 51.2541 19.7439C52.3073 20.7963 52.9542 21.8527 53.4393 23.0979C53.9048 24.3018 54.2243 25.6776 54.3189 27.6933C54.4097 29.7128 54.4333 30.3582 54.4333 35.5002C54.4333 40.6422 54.4097 41.286 54.3189 43.3055C54.2243 45.3204 53.9048 46.6966 53.4393 47.9009C52.9542 49.1458 52.3073 50.2021 51.2541 51.2545C50.2021 52.3077 49.1473 52.9561 47.9024 53.4397C46.6978 53.9079 45.3204 54.227 43.3048 54.3193C41.2852 54.4112 40.6418 54.4337 35.4994 54.4337C30.3578 54.4337 29.7128 54.4112 27.6933 54.3193C25.678 54.227 24.3018 53.9079 23.0972 53.4397C21.8527 52.9561 20.7963 52.3077 19.7443 51.2545C18.6916 50.2021 18.0447 49.1458 17.5607 47.9005C17.0929 46.6966 16.7738 45.3208 16.6811 43.3051C16.5895 41.2856 16.5667 40.6422 16.5667 35.5002C16.5667 30.3582 16.5903 29.7125 16.6807 27.6929C16.7714 25.678 17.0909 24.3018 17.5603 23.0976C18.0455 21.8527 18.6923 20.7963 19.7455 19.7439C20.7979 18.6912 21.8542 18.0443 23.0995 17.5607C24.3034 17.0925 25.6792 16.7734 27.6948 16.6811Z" fill="#C4DCC6"/>
<path fill-rule="evenodd" clip-rule="evenodd" d="M33.8035 19.9786C34.1333 19.9781 34.4881 19.9783 34.871 19.9784L35.502 19.9786C40.5573 19.9786 41.1564 19.9968 43.1527 20.0875C44.9988 20.1719 46.0007 20.4803 46.6681 20.7395C47.5516 21.0827 48.1816 21.4929 48.8438 22.1556C49.5065 22.8182 49.9167 23.4494 50.2607 24.3329C50.5199 24.9995 50.8287 26.0014 50.9127 27.8475C51.0035 29.8434 51.0232 30.4429 51.0232 35.4958C51.0232 40.5487 51.0035 41.1483 50.9127 43.1442C50.8283 44.9902 50.5199 45.9921 50.2607 46.6587C49.9175 47.5423 49.5065 48.1714 48.8438 48.8337C48.1812 49.4964 47.552 49.9066 46.6681 50.2498C46.0015 50.5101 44.9988 50.8178 43.1527 50.9022C41.1568 50.9929 40.5573 51.0126 35.502 51.0126C30.4464 51.0126 29.8472 50.9929 27.8513 50.9022C26.0053 50.817 25.0034 50.5085 24.3356 50.2494C23.452 49.9062 22.8209 49.496 22.1582 48.8333C21.4955 48.1706 21.0853 47.5411 20.7414 46.6571C20.4822 45.9905 20.1734 44.9886 20.0893 43.1426C19.9986 41.1467 19.9805 40.5471 19.9805 35.4911C19.9805 30.435 19.9986 29.8386 20.0893 27.8427C20.1737 25.9967 20.4822 24.9948 20.7414 24.3274C21.0845 23.4438 21.4955 22.8127 22.1582 22.15C22.8209 21.4874 23.452 21.0771 24.3356 20.7332C25.003 20.4729 26.0053 20.1652 27.8513 20.0804C29.5979 20.0015 30.2748 19.9778 33.8035 19.9739V19.9786ZM45.6086 23.1224C44.3542 23.1224 43.3366 24.1389 43.3366 25.3936C43.3366 26.6479 44.3542 27.6656 45.6086 27.6656C46.8629 27.6656 47.8806 26.6479 47.8806 25.3936C47.8806 24.1393 46.8629 23.1216 45.6086 23.1216V23.1224ZM25.7789 35.5002C25.7789 30.1305 30.1324 25.777 35.502 25.777H35.5016C40.8713 25.777 45.2236 30.1305 45.2236 35.5002C45.2236 40.8698 40.8716 45.2213 35.502 45.2213C30.1324 45.2213 25.7789 40.8698 25.7789 35.5002Z" fill="#C4DCC6"/>
<path d="M35.3112 29C38.7965 29 41.6224 31.8254 41.6224 35.3112C41.6224 38.7965 38.7965 41.6224 35.3112 41.6224C31.8254 41.6224 29 38.7965 29 35.3112C29 31.8254 31.8254 29 35.3112 29V29Z" fill="#C4DCC6"/>
</svg>
