<svg width="114" height="50" viewBox="0 0 114 50" fill="none" xmlns="http://www.w3.org/2000/svg">
<mask id="path-1-outside-1_432_1394" maskUnits="userSpaceOnUse" x="0" y="0" width="114" height="50" fill="black">
<rect fill="white" width="114" height="50"/>
<path d="M2 3.43564H31.7647V47L18.1765 43.297L2 47V3.43564Z"/>
<path d="M78.1618 13.4554L91.9221 19.4042L93.451 42.2079L86.4617 40.225L76.1961 38.7378L78.1618 13.4554Z"/>
<path d="M95.1765 23.0396H112V42.6436H95.1765V23.0396Z"/>
<path d="M47.7255 4.522L62.786 3L79.2157 4.522L73.0546 43.0792H52.9739L47.7255 4.522Z"/>
<path d="M13.138 24.743V23.8281H15.6443C16.8522 23.8281 17.8285 23.696 18.5733 23.4317C19.3383 23.1674 19.8919 22.6693 20.2341 21.9374C20.5965 21.1852 20.7776 20.1077 20.7776 18.7049C20.7776 17.4648 20.6468 16.5398 20.3851 15.9299C20.1234 15.2997 19.7208 14.8727 19.1773 14.6491C18.6539 14.4255 17.9795 14.3137 17.1541 14.3137H6.70627V13.5513H18.362C19.6705 13.5513 20.8582 13.7648 21.9251 14.1917C23.0122 14.5983 23.8677 15.1879 24.4918 15.9604C25.1359 16.7329 25.458 17.6783 25.458 18.7964C25.458 19.9756 25.0655 21.0124 24.2804 21.9069C23.4953 22.8015 22.368 23.5028 20.8984 24.0111C19.449 24.499 17.6976 24.743 15.6443 24.743H13.138ZM6.70627 36.5446V35.7822H17.9996V36.5446H6.70627ZM10.0278 36.0871V13.5513H14.0741V36.0871H10.0278ZM25.458 36.5446C24.4716 36.5446 23.5758 36.3514 22.7706 35.9651C21.9855 35.5789 21.3614 35.0401 20.8984 34.3489C20.4354 33.6374 20.1838 32.814 20.1435 31.8788L20.0529 29.4697C19.9926 27.8636 19.5799 26.6743 18.8149 25.9018C18.0499 25.1292 17.0736 24.743 15.8859 24.743L18.1808 24.4075H19.298V24.5295C20.1637 24.7328 20.989 25.1292 21.7741 25.7188C22.5793 26.3084 23.2437 27.0199 23.7671 27.8535C24.2905 28.687 24.5522 29.5917 24.5522 30.5675V32.1533C24.5522 33.556 24.7031 34.5116 25.0051 35.0198C25.3071 35.5281 25.8506 35.7822 26.6357 35.7822H27.7831V36.5446H25.458Z"/>
<path d="M85.1039 38.1564C84.0974 38.1564 83.262 37.9226 82.5976 37.455C81.9535 36.9875 81.4603 36.4182 81.118 35.7473C80.7758 35.0561 80.5644 34.4055 80.4839 33.7956H80.2424V37.8515H79.2761V30.7156H80.8463V31.0816C80.8463 31.2849 80.8563 31.6203 80.8765 32.0879C80.9167 32.5555 81.0073 33.0739 81.1482 33.6432C81.2891 34.2124 81.5005 34.7613 81.7823 35.2899C82.0843 35.8185 82.497 36.2556 83.0204 36.6012C83.5438 36.9468 84.2081 37.1196 85.0133 37.1196C85.9192 37.1196 86.6037 36.8858 87.0667 36.4182C87.5498 35.9506 87.7914 35.3407 87.7914 34.5885C87.7914 33.8566 87.6001 33.2264 87.2177 32.6978C86.8352 32.1489 86.342 31.6712 85.738 31.2646C85.1341 30.8376 84.4899 30.4209 83.8055 30.0143C83.1412 29.6077 82.5071 29.1807 81.9031 28.7335C81.2992 28.2659 80.806 27.7373 80.4235 27.1477C80.041 26.5378 79.8498 25.8161 79.8498 24.9826C79.8498 23.8441 80.2222 22.9089 80.9671 22.177C81.7119 21.4451 82.7184 21.0792 83.9867 21.0792C84.9127 21.0792 85.6474 21.2622 86.191 21.6281C86.7345 21.9737 87.1371 22.3905 87.3988 22.8784C87.6807 23.346 87.8719 23.7729 87.9725 24.1592H88.2141V21.3842H89.1804V27.3002H87.9122V27.2087C87.9122 26.6801 87.8518 26.1211 87.731 25.5315C87.6102 24.9419 87.3988 24.3828 87.0969 23.8543C86.815 23.3257 86.4225 22.8987 85.9192 22.5735C85.4361 22.2482 84.8221 22.0855 84.0773 22.0855C83.1512 22.0855 82.5171 22.3295 82.1749 22.8174C81.8327 23.3053 81.6616 23.8136 81.6616 24.3422C81.6616 24.9927 81.8528 25.5721 82.2353 26.0804C82.6178 26.5683 83.111 27.0257 83.7149 27.4527C84.3188 27.8593 84.9529 28.2659 85.6173 28.6725C86.3017 29.0791 86.9459 29.5263 87.5498 30.0143C88.1537 30.4818 88.6469 31.0308 89.0294 31.661C89.4119 32.2709 89.6031 33.0028 89.6031 33.8566C89.6031 34.6698 89.4018 35.4017 88.9992 36.0523C88.6167 36.7028 88.0833 37.2213 87.3988 37.6075C86.7345 37.9735 85.9695 38.1564 85.1039 38.1564Z"/>
<path d="M103.994 40.2911C102.941 40.2911 101.992 39.9948 101.147 39.4024C100.318 38.7925 99.6627 37.9473 99.1796 36.8669C98.7137 35.7865 98.4808 34.5319 98.4808 33.103C98.4808 32.162 98.5843 31.2558 98.7914 30.3846C99.0157 29.4958 99.3522 28.6943 99.8008 27.9798C100.267 27.2653 100.836 26.699 101.509 26.2808C102.199 25.8626 103.01 25.6535 103.942 25.6535C105.305 25.6535 106.401 26.124 107.229 27.0649C108.075 28.0059 108.497 29.3216 108.497 31.0119C108.497 31.2384 108.489 31.4475 108.471 31.6392C108.471 31.8309 108.463 31.979 108.445 32.0836H100.396V34.2792C100.396 35.377 100.586 36.2919 100.965 37.0238C101.345 37.7382 101.845 38.2784 102.467 38.6444C103.088 39.0103 103.744 39.1933 104.434 39.1933C105.089 39.1933 105.642 39.0539 106.09 38.7751C106.556 38.4962 106.927 38.1564 107.203 37.7556C107.496 37.3374 107.695 36.9453 107.798 36.5794L108.342 36.7624C108.238 37.2677 108.005 37.7992 107.643 38.3568C107.281 38.897 106.798 39.3588 106.194 39.7422C105.59 40.1081 104.856 40.2911 103.994 40.2911ZM103.89 26.4899C103.165 26.4899 102.544 26.7077 102.027 27.1434C101.526 27.5616 101.138 28.1453 100.862 28.8947C100.586 29.6265 100.431 30.463 100.396 31.404H105.573C105.762 31.404 105.944 31.3865 106.116 31.3517C106.306 31.2994 106.461 31.1687 106.582 30.9596C106.72 30.7331 106.789 30.3584 106.789 29.8356C106.789 28.7552 106.513 27.9275 105.961 27.3525C105.409 26.7774 104.718 26.4899 103.89 26.4899Z"/>
<path d="M33.0588 16.9406H51.1765L47.6317 42.2079H33.0588V16.9406Z"/>
<path d="M40.7373 36.9802C38.9658 36.9802 37.6673 36.6041 36.842 35.8519C36.0166 35.0793 35.6039 33.829 35.6039 32.101V26.6119C35.6039 24.8635 35.9763 23.6132 36.7212 22.861C37.466 22.1088 38.7041 21.7327 40.4353 21.7327H41.2506C42.6799 21.7327 43.7569 22.1393 44.4816 22.9525C45.2264 23.7453 45.5988 24.9143 45.5988 26.4594V30.4238H38.1706V32.7109C38.1706 33.3411 38.3618 33.829 38.7443 34.1747C39.1268 34.5203 39.6905 34.6931 40.4353 34.6931H44.6325V36.9802H40.7373ZM43.0926 28.1366V25.8495C43.0926 25.3209 42.9214 24.8838 42.5792 24.5382C42.237 24.1926 41.8042 24.0198 41.2808 24.0198H40.1333C39.4086 24.0198 38.8953 24.1926 38.5933 24.5382C38.3115 24.8635 38.1706 25.3514 38.1706 26.002V28.1366H43.0926Z"/>
<path d="M64.1565 38.2174C62.546 38.2174 61.1369 37.9938 59.929 37.5465C58.7413 37.0789 57.8153 36.3776 57.151 35.4424C56.5068 34.5072 56.1847 33.3281 56.1847 31.9049V15.6206H52.6518V14.8582H63.0996V15.6206H60.231V31.8745C60.231 33.7651 60.6638 35.1171 61.5294 35.9303C62.395 36.7435 63.5827 37.1501 65.0925 37.1501C66.703 37.1501 67.9813 36.713 68.9275 35.8388C69.8736 34.9646 70.3467 33.6432 70.3467 31.8745V15.6206H67.1761V14.8582H74.5137V15.6206H71.3431V31.8745C71.3431 34.0498 70.7392 35.6558 69.5314 36.6927C68.3437 37.7092 66.552 38.2174 64.1565 38.2174Z"/>
</mask>
<path d="M2 3.43564H31.7647V47L18.1765 43.297L2 47V3.43564Z" fill="#F8D03C"/>
<path d="M78.1618 13.4554L91.9221 19.4042L93.451 42.2079L86.4617 40.225L76.1961 38.7378L78.1618 13.4554Z" fill="#004643"/>
<path d="M95.1765 23.0396H112V42.6436H95.1765V23.0396Z" fill="#F8D03C"/>
<path d="M47.7255 4.522L62.786 3L79.2157 4.522L73.0546 43.0792H52.9739L47.7255 4.522Z" fill="#C4DCC6"/>
<path d="M13.138 24.743V23.8281H15.6443C16.8522 23.8281 17.8285 23.696 18.5733 23.4317C19.3383 23.1674 19.8919 22.6693 20.2341 21.9374C20.5965 21.1852 20.7776 20.1077 20.7776 18.7049C20.7776 17.4648 20.6468 16.5398 20.3851 15.9299C20.1234 15.2997 19.7208 14.8727 19.1773 14.6491C18.6539 14.4255 17.9795 14.3137 17.1541 14.3137H6.70627V13.5513H18.362C19.6705 13.5513 20.8582 13.7648 21.9251 14.1917C23.0122 14.5983 23.8677 15.1879 24.4918 15.9604C25.1359 16.7329 25.458 17.6783 25.458 18.7964C25.458 19.9756 25.0655 21.0124 24.2804 21.9069C23.4953 22.8015 22.368 23.5028 20.8984 24.0111C19.449 24.499 17.6976 24.743 15.6443 24.743H13.138ZM6.70627 36.5446V35.7822H17.9996V36.5446H6.70627ZM10.0278 36.0871V13.5513H14.0741V36.0871H10.0278ZM25.458 36.5446C24.4716 36.5446 23.5758 36.3514 22.7706 35.9651C21.9855 35.5789 21.3614 35.0401 20.8984 34.3489C20.4354 33.6374 20.1838 32.814 20.1435 31.8788L20.0529 29.4697C19.9926 27.8636 19.5799 26.6743 18.8149 25.9018C18.0499 25.1292 17.0736 24.743 15.8859 24.743L18.1808 24.4075H19.298V24.5295C20.1637 24.7328 20.989 25.1292 21.7741 25.7188C22.5793 26.3084 23.2437 27.0199 23.7671 27.8535C24.2905 28.687 24.5522 29.5917 24.5522 30.5675V32.1533C24.5522 33.556 24.7031 34.5116 25.0051 35.0198C25.3071 35.5281 25.8506 35.7822 26.6357 35.7822H27.7831V36.5446H25.458Z" fill="#2E2E2E"/>
<path d="M85.1039 38.1564C84.0974 38.1564 83.262 37.9226 82.5976 37.455C81.9535 36.9875 81.4603 36.4182 81.118 35.7473C80.7758 35.0561 80.5644 34.4055 80.4839 33.7956H80.2424V37.8515H79.2761V30.7156H80.8463V31.0816C80.8463 31.2849 80.8563 31.6203 80.8765 32.0879C80.9167 32.5555 81.0073 33.0739 81.1482 33.6432C81.2891 34.2124 81.5005 34.7613 81.7823 35.2899C82.0843 35.8185 82.497 36.2556 83.0204 36.6012C83.5438 36.9468 84.2081 37.1196 85.0133 37.1196C85.9192 37.1196 86.6037 36.8858 87.0667 36.4182C87.5498 35.9506 87.7914 35.3407 87.7914 34.5885C87.7914 33.8566 87.6001 33.2264 87.2177 32.6978C86.8352 32.1489 86.342 31.6712 85.738 31.2646C85.1341 30.8376 84.4899 30.4209 83.8055 30.0143C83.1412 29.6077 82.5071 29.1807 81.9031 28.7335C81.2992 28.2659 80.806 27.7373 80.4235 27.1477C80.041 26.5378 79.8498 25.8161 79.8498 24.9826C79.8498 23.8441 80.2222 22.9089 80.9671 22.177C81.7119 21.4451 82.7184 21.0792 83.9867 21.0792C84.9127 21.0792 85.6474 21.2622 86.191 21.6281C86.7345 21.9737 87.1371 22.3905 87.3988 22.8784C87.6807 23.346 87.8719 23.7729 87.9725 24.1592H88.2141V21.3842H89.1804V27.3002H87.9122V27.2087C87.9122 26.6801 87.8518 26.1211 87.731 25.5315C87.6102 24.9419 87.3988 24.3828 87.0969 23.8543C86.815 23.3257 86.4225 22.8987 85.9192 22.5735C85.4361 22.2482 84.8221 22.0855 84.0773 22.0855C83.1512 22.0855 82.5171 22.3295 82.1749 22.8174C81.8327 23.3053 81.6616 23.8136 81.6616 24.3422C81.6616 24.9927 81.8528 25.5721 82.2353 26.0804C82.6178 26.5683 83.111 27.0257 83.7149 27.4527C84.3188 27.8593 84.9529 28.2659 85.6173 28.6725C86.3017 29.0791 86.9459 29.5263 87.5498 30.0143C88.1537 30.4818 88.6469 31.0308 89.0294 31.661C89.4119 32.2709 89.6031 33.0028 89.6031 33.8566C89.6031 34.6698 89.4018 35.4017 88.9992 36.0523C88.6167 36.7028 88.0833 37.2213 87.3988 37.6075C86.7345 37.9735 85.9695 38.1564 85.1039 38.1564Z" fill="#F8D03C"/>
<path d="M103.994 40.2911C102.941 40.2911 101.992 39.9948 101.147 39.4024C100.318 38.7925 99.6627 37.9473 99.1796 36.8669C98.7137 35.7865 98.4808 34.5319 98.4808 33.103C98.4808 32.162 98.5843 31.2558 98.7914 30.3846C99.0157 29.4958 99.3522 28.6943 99.8008 27.9798C100.267 27.2653 100.836 26.699 101.509 26.2808C102.199 25.8626 103.01 25.6535 103.942 25.6535C105.305 25.6535 106.401 26.124 107.229 27.0649C108.075 28.0059 108.497 29.3216 108.497 31.0119C108.497 31.2384 108.489 31.4475 108.471 31.6392C108.471 31.8309 108.463 31.979 108.445 32.0836H100.396V34.2792C100.396 35.377 100.586 36.2919 100.965 37.0238C101.345 37.7382 101.845 38.2784 102.467 38.6444C103.088 39.0103 103.744 39.1933 104.434 39.1933C105.089 39.1933 105.642 39.0539 106.09 38.7751C106.556 38.4962 106.927 38.1564 107.203 37.7556C107.496 37.3374 107.695 36.9453 107.798 36.5794L108.342 36.7624C108.238 37.2677 108.005 37.7992 107.643 38.3568C107.281 38.897 106.798 39.3588 106.194 39.7422C105.59 40.1081 104.856 40.2911 103.994 40.2911ZM103.89 26.4899C103.165 26.4899 102.544 26.7077 102.027 27.1434C101.526 27.5616 101.138 28.1453 100.862 28.8947C100.586 29.6265 100.431 30.463 100.396 31.404H105.573C105.762 31.404 105.944 31.3865 106.116 31.3517C106.306 31.2994 106.461 31.1687 106.582 30.9596C106.72 30.7331 106.789 30.3584 106.789 29.8356C106.789 28.7552 106.513 27.9275 105.961 27.3525C105.409 26.7774 104.718 26.4899 103.89 26.4899Z" fill="#2E2E2E"/>
<path d="M33.0588 16.9406H51.1765L47.6317 42.2079H33.0588V16.9406Z" fill="#E22E20"/>
<path d="M40.7373 36.9802C38.9658 36.9802 37.6673 36.6041 36.842 35.8519C36.0166 35.0793 35.6039 33.829 35.6039 32.101V26.6119C35.6039 24.8635 35.9763 23.6132 36.7212 22.861C37.466 22.1088 38.7041 21.7327 40.4353 21.7327H41.2506C42.6799 21.7327 43.7569 22.1393 44.4816 22.9525C45.2264 23.7453 45.5988 24.9143 45.5988 26.4594V30.4238H38.1706V32.7109C38.1706 33.3411 38.3618 33.829 38.7443 34.1747C39.1268 34.5203 39.6905 34.6931 40.4353 34.6931H44.6325V36.9802H40.7373ZM43.0926 28.1366V25.8495C43.0926 25.3209 42.9214 24.8838 42.5792 24.5382C42.237 24.1926 41.8042 24.0198 41.2808 24.0198H40.1333C39.4086 24.0198 38.8953 24.1926 38.5933 24.5382C38.3115 24.8635 38.1706 25.3514 38.1706 26.002V28.1366H43.0926Z" fill="#2E2E2E"/>
<path d="M64.1565 38.2174C62.546 38.2174 61.1369 37.9938 59.929 37.5465C58.7413 37.0789 57.8153 36.3776 57.151 35.4424C56.5068 34.5072 56.1847 33.3281 56.1847 31.9049V15.6206H52.6518V14.8582H63.0996V15.6206H60.231V31.8745C60.231 33.7651 60.6638 35.1171 61.5294 35.9303C62.395 36.7435 63.5827 37.1501 65.0925 37.1501C66.703 37.1501 67.9813 36.713 68.9275 35.8388C69.8736 34.9646 70.3467 33.6432 70.3467 31.8745V15.6206H67.1761V14.8582H74.5137V15.6206H71.3431V31.8745C71.3431 34.0498 70.7392 35.6558 69.5314 36.6927C68.3437 37.7092 66.552 38.2174 64.1565 38.2174Z" fill="#004643"/>
<path d="M2 3.43564H31.7647V47L18.1765 43.297L2 47V3.43564Z" stroke="white" stroke-width="4" mask="url(#path-1-outside-1_432_1394)"/>
<path d="M78.1618 13.4554L91.9221 19.4042L93.451 42.2079L86.4617 40.225L76.1961 38.7378L78.1618 13.4554Z" stroke="white" stroke-width="4" mask="url(#path-1-outside-1_432_1394)"/>
<path d="M95.1765 23.0396H112V42.6436H95.1765V23.0396Z" stroke="white" stroke-width="4" mask="url(#path-1-outside-1_432_1394)"/>
<path d="M47.7255 4.522L62.786 3L79.2157 4.522L73.0546 43.0792H52.9739L47.7255 4.522Z" stroke="white" stroke-width="4" mask="url(#path-1-outside-1_432_1394)"/>
<path d="M13.138 24.743V23.8281H15.6443C16.8522 23.8281 17.8285 23.696 18.5733 23.4317C19.3383 23.1674 19.8919 22.6693 20.2341 21.9374C20.5965 21.1852 20.7776 20.1077 20.7776 18.7049C20.7776 17.4648 20.6468 16.5398 20.3851 15.9299C20.1234 15.2997 19.7208 14.8727 19.1773 14.6491C18.6539 14.4255 17.9795 14.3137 17.1541 14.3137H6.70627V13.5513H18.362C19.6705 13.5513 20.8582 13.7648 21.9251 14.1917C23.0122 14.5983 23.8677 15.1879 24.4918 15.9604C25.1359 16.7329 25.458 17.6783 25.458 18.7964C25.458 19.9756 25.0655 21.0124 24.2804 21.9069C23.4953 22.8015 22.368 23.5028 20.8984 24.0111C19.449 24.499 17.6976 24.743 15.6443 24.743H13.138ZM6.70627 36.5446V35.7822H17.9996V36.5446H6.70627ZM10.0278 36.0871V13.5513H14.0741V36.0871H10.0278ZM25.458 36.5446C24.4716 36.5446 23.5758 36.3514 22.7706 35.9651C21.9855 35.5789 21.3614 35.0401 20.8984 34.3489C20.4354 33.6374 20.1838 32.814 20.1435 31.8788L20.0529 29.4697C19.9926 27.8636 19.5799 26.6743 18.8149 25.9018C18.0499 25.1292 17.0736 24.743 15.8859 24.743L18.1808 24.4075H19.298V24.5295C20.1637 24.7328 20.989 25.1292 21.7741 25.7188C22.5793 26.3084 23.2437 27.0199 23.7671 27.8535C24.2905 28.687 24.5522 29.5917 24.5522 30.5675V32.1533C24.5522 33.556 24.7031 34.5116 25.0051 35.0198C25.3071 35.5281 25.8506 35.7822 26.6357 35.7822H27.7831V36.5446H25.458Z" stroke="white" stroke-width="4" mask="url(#path-1-outside-1_432_1394)"/>
<path d="M85.1039 38.1564C84.0974 38.1564 83.262 37.9226 82.5976 37.455C81.9535 36.9875 81.4603 36.4182 81.118 35.7473C80.7758 35.0561 80.5644 34.4055 80.4839 33.7956H80.2424V37.8515H79.2761V30.7156H80.8463V31.0816C80.8463 31.2849 80.8563 31.6203 80.8765 32.0879C80.9167 32.5555 81.0073 33.0739 81.1482 33.6432C81.2891 34.2124 81.5005 34.7613 81.7823 35.2899C82.0843 35.8185 82.497 36.2556 83.0204 36.6012C83.5438 36.9468 84.2081 37.1196 85.0133 37.1196C85.9192 37.1196 86.6037 36.8858 87.0667 36.4182C87.5498 35.9506 87.7914 35.3407 87.7914 34.5885C87.7914 33.8566 87.6001 33.2264 87.2177 32.6978C86.8352 32.1489 86.342 31.6712 85.738 31.2646C85.1341 30.8376 84.4899 30.4209 83.8055 30.0143C83.1412 29.6077 82.5071 29.1807 81.9031 28.7335C81.2992 28.2659 80.806 27.7373 80.4235 27.1477C80.041 26.5378 79.8498 25.8161 79.8498 24.9826C79.8498 23.8441 80.2222 22.9089 80.9671 22.177C81.7119 21.4451 82.7184 21.0792 83.9867 21.0792C84.9127 21.0792 85.6474 21.2622 86.191 21.6281C86.7345 21.9737 87.1371 22.3905 87.3988 22.8784C87.6807 23.346 87.8719 23.7729 87.9725 24.1592H88.2141V21.3842H89.1804V27.3002H87.9122V27.2087C87.9122 26.6801 87.8518 26.1211 87.731 25.5315C87.6102 24.9419 87.3988 24.3828 87.0969 23.8543C86.815 23.3257 86.4225 22.8987 85.9192 22.5735C85.4361 22.2482 84.8221 22.0855 84.0773 22.0855C83.1512 22.0855 82.5171 22.3295 82.1749 22.8174C81.8327 23.3053 81.6616 23.8136 81.6616 24.3422C81.6616 24.9927 81.8528 25.5721 82.2353 26.0804C82.6178 26.5683 83.111 27.0257 83.7149 27.4527C84.3188 27.8593 84.9529 28.2659 85.6173 28.6725C86.3017 29.0791 86.9459 29.5263 87.5498 30.0143C88.1537 30.4818 88.6469 31.0308 89.0294 31.661C89.4119 32.2709 89.6031 33.0028 89.6031 33.8566C89.6031 34.6698 89.4018 35.4017 88.9992 36.0523C88.6167 36.7028 88.0833 37.2213 87.3988 37.6075C86.7345 37.9735 85.9695 38.1564 85.1039 38.1564Z" stroke="white" stroke-width="4" mask="url(#path-1-outside-1_432_1394)"/>
<path d="M103.994 40.2911C102.941 40.2911 101.992 39.9948 101.147 39.4024C100.318 38.7925 99.6627 37.9473 99.1796 36.8669C98.7137 35.7865 98.4808 34.5319 98.4808 33.103C98.4808 32.162 98.5843 31.2558 98.7914 30.3846C99.0157 29.4958 99.3522 28.6943 99.8008 27.9798C100.267 27.2653 100.836 26.699 101.509 26.2808C102.199 25.8626 103.01 25.6535 103.942 25.6535C105.305 25.6535 106.401 26.124 107.229 27.0649C108.075 28.0059 108.497 29.3216 108.497 31.0119C108.497 31.2384 108.489 31.4475 108.471 31.6392C108.471 31.8309 108.463 31.979 108.445 32.0836H100.396V34.2792C100.396 35.377 100.586 36.2919 100.965 37.0238C101.345 37.7382 101.845 38.2784 102.467 38.6444C103.088 39.0103 103.744 39.1933 104.434 39.1933C105.089 39.1933 105.642 39.0539 106.09 38.7751C106.556 38.4962 106.927 38.1564 107.203 37.7556C107.496 37.3374 107.695 36.9453 107.798 36.5794L108.342 36.7624C108.238 37.2677 108.005 37.7992 107.643 38.3568C107.281 38.897 106.798 39.3588 106.194 39.7422C105.59 40.1081 104.856 40.2911 103.994 40.2911ZM103.89 26.4899C103.165 26.4899 102.544 26.7077 102.027 27.1434C101.526 27.5616 101.138 28.1453 100.862 28.8947C100.586 29.6265 100.431 30.463 100.396 31.404H105.573C105.762 31.404 105.944 31.3865 106.116 31.3517C106.306 31.2994 106.461 31.1687 106.582 30.9596C106.72 30.7331 106.789 30.3584 106.789 29.8356C106.789 28.7552 106.513 27.9275 105.961 27.3525C105.409 26.7774 104.718 26.4899 103.89 26.4899Z" stroke="white" stroke-width="4" mask="url(#path-1-outside-1_432_1394)"/>
<path d="M33.0588 16.9406H51.1765L47.6317 42.2079H33.0588V16.9406Z" stroke="white" stroke-width="4" mask="url(#path-1-outside-1_432_1394)"/>
<path d="M40.7373 36.9802C38.9658 36.9802 37.6673 36.6041 36.842 35.8519C36.0166 35.0793 35.6039 33.829 35.6039 32.101V26.6119C35.6039 24.8635 35.9763 23.6132 36.7212 22.861C37.466 22.1088 38.7041 21.7327 40.4353 21.7327H41.2506C42.6799 21.7327 43.7569 22.1393 44.4816 22.9525C45.2264 23.7453 45.5988 24.9143 45.5988 26.4594V30.4238H38.1706V32.7109C38.1706 33.3411 38.3618 33.829 38.7443 34.1747C39.1268 34.5203 39.6905 34.6931 40.4353 34.6931H44.6325V36.9802H40.7373ZM43.0926 28.1366V25.8495C43.0926 25.3209 42.9214 24.8838 42.5792 24.5382C42.237 24.1926 41.8042 24.0198 41.2808 24.0198H40.1333C39.4086 24.0198 38.8953 24.1926 38.5933 24.5382C38.3115 24.8635 38.1706 25.3514 38.1706 26.002V28.1366H43.0926Z" stroke="white" stroke-width="4" mask="url(#path-1-outside-1_432_1394)"/>
<path d="M64.1565 38.2174C62.546 38.2174 61.1369 37.9938 59.929 37.5465C58.7413 37.0789 57.8153 36.3776 57.151 35.4424C56.5068 34.5072 56.1847 33.3281 56.1847 31.9049V15.6206H52.6518V14.8582H63.0996V15.6206H60.231V31.8745C60.231 33.7651 60.6638 35.1171 61.5294 35.9303C62.395 36.7435 63.5827 37.1501 65.0925 37.1501C66.703 37.1501 67.9813 36.713 68.9275 35.8388C69.8736 34.9646 70.3467 33.6432 70.3467 31.8745V15.6206H67.1761V14.8582H74.5137V15.6206H71.3431V31.8745C71.3431 34.0498 70.7392 35.6558 69.5314 36.6927C68.3437 37.7092 66.552 38.2174 64.1565 38.2174Z" stroke="white" stroke-width="4" mask="url(#path-1-outside-1_432_1394)"/>
</svg>
