<svg width="71" height="71" viewBox="0 0 71 71" fill="none" xmlns="http://www.w3.org/2000/svg">
<path fill-rule="evenodd" clip-rule="evenodd" d="M0 35.5C0 55.1061 15.8939 71 35.5 71C55.1061 71 71 55.1061 71 35.5C71 15.8939 55.1061 0 35.5 0C15.8939 0 0 15.8939 0 35.5ZM28.9917 51.7708L29.5957 42.7217L29.5952 42.7213L46.0567 27.866C46.7792 27.2248 45.8989 26.9122 44.9399 27.4937L24.6241 40.3107L15.8488 37.5718C13.9537 36.9916 13.9401 35.6893 16.2743 34.7531L50.4696 21.5675C52.0314 20.8585 53.5389 21.9426 52.9426 24.333L47.1192 51.7754C46.7125 53.7255 45.5342 54.1919 43.9017 53.2911L35.0307 46.7371L30.7667 50.8833C30.7532 50.8964 30.7398 50.9094 30.7265 50.9224C30.2496 51.3867 29.8551 51.7708 28.9917 51.7708Z" fill="#C4DCC6"/>
</svg>
