<svg width="159" height="49" viewBox="0 0 159 49" fill="none" xmlns="http://www.w3.org/2000/svg">
<path d="M23.5 25.544V24.704H33.958V25.544H23.5ZM24.529 20.525V19.685H34.987V20.525H24.529ZM25.117 30.5L27.637 14.477H28.645L26.125 30.5H25.117ZM29.674 30.5L32.194 14.477H33.202L30.682 30.5H29.674ZM49.3699 30.185V23.087C49.3699 22.037 48.9709 21.512 48.1729 21.512C47.7249 21.512 47.3119 21.701 46.9339 22.079C46.5559 22.457 46.2549 22.975 46.0309 23.633C45.8069 24.277 45.6949 25.012 45.6949 25.838L45.2749 22.793H45.7789C46.0589 22.219 46.4509 21.743 46.9549 21.365C47.4729 20.987 48.1239 20.798 48.9079 20.798C49.7199 20.798 50.3849 21.022 50.9029 21.47C51.4209 21.904 51.6799 22.443 51.6799 23.087V30.185H49.3699ZM35.7409 30.5V29.975H41.0749V30.5H35.7409ZM37.3999 30.185V21.386H39.7099V30.185H37.3999ZM41.7889 30.5V29.975H47.1229V30.5H41.7889ZM35.7409 21.575V21.05H39.7099V21.575H35.7409ZM43.3849 30.185V23.087C43.3849 22.037 42.9859 21.512 42.1879 21.512C41.7399 21.512 41.3269 21.701 40.9489 22.079C40.5709 22.457 40.2699 22.975 40.0459 23.633C39.8219 24.277 39.7099 25.012 39.7099 25.838L39.2899 22.793H39.7939C40.0739 22.219 40.4659 21.743 40.9699 21.365C41.4879 20.987 42.1389 20.798 42.9229 20.798C43.7349 20.798 44.3999 21.022 44.9179 21.47C45.4359 21.904 45.6949 22.443 45.6949 23.087V30.185H43.3849ZM47.7739 30.5V29.975H53.1079V30.5H47.7739ZM59.5334 30.752C58.8614 30.752 58.2244 30.619 57.6224 30.353C57.0344 30.073 56.5164 29.702 56.0684 29.24C55.6204 28.764 55.2704 28.232 55.0184 27.644C54.7664 27.042 54.6404 26.419 54.6404 25.775C54.6404 24.921 54.8364 24.116 55.2284 23.36C55.6344 22.604 56.1944 21.988 56.9084 21.512C57.6224 21.036 58.4624 20.798 59.4284 20.798C60.1844 20.798 60.8634 20.973 61.4654 21.323C62.0814 21.659 62.5644 22.135 62.9144 22.751C63.2644 23.367 63.4394 24.074 63.4394 24.872V24.998H56.5724V24.473H61.0034V23.276C61.0034 22.002 60.4434 21.365 59.3234 21.365C58.8614 21.365 58.4834 21.505 58.1894 21.785C57.9094 22.051 57.6994 22.506 57.5594 23.15C57.4334 23.794 57.3704 24.669 57.3704 25.775C57.3704 26.909 57.4404 27.791 57.5804 28.421C57.7204 29.051 57.9514 29.492 58.2734 29.744C58.6094 29.996 59.0504 30.122 59.5964 30.122C60.3384 30.122 60.9824 29.933 61.5284 29.555C62.0744 29.177 62.5364 28.519 62.9144 27.581H63.5024C63.2224 28.561 62.7254 29.338 62.0114 29.912C61.3114 30.472 60.4854 30.752 59.5334 30.752ZM65.1799 30.5V29.975H66.8389V21.575H65.1799V21.05H69.1489V22.709H69.2329C69.5829 21.953 69.9819 21.449 70.4299 21.197C70.8919 20.931 71.3189 20.798 71.7109 20.798C72.1589 20.798 72.5089 20.931 72.7609 21.197C73.0269 21.449 73.1599 21.813 73.1599 22.289C73.1599 22.723 73.0269 23.045 72.7609 23.255C72.5089 23.451 72.2219 23.549 71.8999 23.549C71.6339 23.549 71.3889 23.479 71.1649 23.339C70.9549 23.185 70.8499 22.975 70.8499 22.709C70.8499 22.625 70.8569 22.555 70.8709 22.499C70.8989 22.429 70.9129 22.359 70.9129 22.289C70.9129 22.219 70.8919 22.156 70.8499 22.1C70.8079 22.044 70.7169 22.016 70.5769 22.016C70.3949 22.016 70.1919 22.163 69.9679 22.457C69.7439 22.737 69.5479 23.122 69.3799 23.612C69.2259 24.088 69.1489 24.62 69.1489 25.208V29.975H71.0389V30.5H65.1799ZM79.5213 30.752C78.8493 30.752 78.2193 30.612 77.6313 30.332C77.0433 30.052 76.5253 29.674 76.0773 29.198C75.6293 28.722 75.2793 28.19 75.0273 27.602C74.7753 27 74.6493 26.384 74.6493 25.754C74.6493 25.138 74.7753 24.536 75.0273 23.948C75.2793 23.36 75.6293 22.828 76.0773 22.352C76.5253 21.876 77.0573 21.498 77.6733 21.218C78.2893 20.938 78.9613 20.798 79.6893 20.798C80.3053 20.798 80.8653 20.903 81.3693 21.113C81.8873 21.309 82.2933 21.589 82.5873 21.953C82.8953 22.303 83.0493 22.716 83.0493 23.192C83.0493 23.598 82.9303 23.92 82.6923 24.158C82.4543 24.396 82.1533 24.515 81.7893 24.515C81.4533 24.515 81.1523 24.417 80.8863 24.221C80.6203 24.025 80.4873 23.731 80.4873 23.339C80.4873 23.101 80.5293 22.919 80.6133 22.793C80.6973 22.667 80.7813 22.555 80.8653 22.457C80.9493 22.345 80.9913 22.205 80.9913 22.037C80.9913 21.799 80.8793 21.631 80.6553 21.533C80.4313 21.421 80.1023 21.365 79.6683 21.365C79.1223 21.365 78.6813 21.484 78.3453 21.722C78.0093 21.96 77.7643 22.401 77.6103 23.045C77.4563 23.675 77.3793 24.592 77.3793 25.796C77.3793 26.93 77.4493 27.812 77.5893 28.442C77.7293 29.072 77.9603 29.513 78.2823 29.765C78.6043 30.003 79.0383 30.122 79.5843 30.122C80.3543 30.122 80.9913 29.912 81.4953 29.492C82.0133 29.072 82.4613 28.365 82.8393 27.371H83.4273C83.1613 28.379 82.6923 29.198 82.0203 29.828C81.3623 30.444 80.5293 30.752 79.5213 30.752ZM87.8558 30.752C87.0998 30.752 86.4838 30.535 86.0078 30.101C85.5318 29.667 85.2938 29.1 85.2938 28.4C85.2938 27.728 85.5178 27.154 85.9658 26.678C86.4278 26.202 87.0788 25.838 87.9188 25.586C88.7588 25.32 89.7528 25.187 90.9008 25.187V22.625C90.9008 22.261 90.7608 21.974 90.4808 21.764C90.2008 21.554 89.8158 21.449 89.3258 21.449C88.9058 21.449 88.5628 21.519 88.2968 21.659C88.0308 21.799 87.8978 21.981 87.8978 22.205C87.8978 22.345 87.9468 22.471 88.0448 22.583C88.1428 22.695 88.1918 22.87 88.1918 23.108C88.1918 23.402 88.0798 23.647 87.8558 23.843C87.6458 24.025 87.3728 24.116 87.0368 24.116C86.7008 24.116 86.4348 24.018 86.2388 23.822C86.0428 23.612 85.9448 23.353 85.9448 23.045C85.9448 22.625 86.1128 22.247 86.4488 21.911C86.7848 21.561 87.2398 21.288 87.8138 21.092C88.3878 20.896 89.0318 20.798 89.7458 20.798C90.7678 20.798 91.6008 21.001 92.2448 21.407C92.8888 21.799 93.2108 22.317 93.2108 22.961V29.345C93.2108 29.485 93.2528 29.604 93.3368 29.702C93.4348 29.786 93.5468 29.828 93.6728 29.828C93.7988 29.828 93.9458 29.765 94.1138 29.639C94.2818 29.499 94.4918 29.289 94.7438 29.009L95.0378 29.345C94.3798 30.283 93.6448 30.752 92.8328 30.752C92.3428 30.752 91.9368 30.619 91.6148 30.353C91.3068 30.073 91.0968 29.688 90.9848 29.198H90.9008C90.6348 29.646 90.2148 30.017 89.6408 30.311C89.0668 30.605 88.4718 30.752 87.8558 30.752ZM89.1158 29.597C89.6478 29.597 90.0748 29.401 90.3968 29.009C90.7328 28.603 90.9008 28.078 90.9008 27.434V25.733C89.8508 25.733 89.0598 25.929 88.5278 26.321C87.9958 26.699 87.7298 27.259 87.7298 28.001C87.7298 28.505 87.8488 28.897 88.0868 29.177C88.3388 29.457 88.6818 29.597 89.1158 29.597ZM99.3819 30.773C98.6539 30.773 98.1079 30.626 97.7439 30.332C97.3939 30.038 97.2189 29.597 97.2189 29.009V21.596H95.5179V21.071C96.0079 21.029 96.4629 20.84 96.8829 20.504C97.3169 20.154 97.7089 19.713 98.0589 19.181C98.4229 18.649 98.7169 18.068 98.9409 17.438H99.5289V21.071H101.944V21.596H99.5289V28.862C99.5289 29.492 99.7879 29.807 100.306 29.807C100.6 29.807 100.866 29.709 101.104 29.513C101.356 29.303 101.615 28.96 101.881 28.484L102.301 28.715C101.951 29.485 101.552 30.024 101.104 30.332C100.656 30.626 100.082 30.773 99.3819 30.773ZM105.294 30.185V21.575H107.604V30.185H105.294ZM103.635 30.5V29.975H109.284V30.5H103.635ZM103.425 21.764V21.239H107.604V21.764H103.425ZM106.407 17.942C106.029 17.942 105.7 17.809 105.42 17.543C105.154 17.263 105.021 16.934 105.021 16.556C105.021 16.178 105.154 15.856 105.42 15.59C105.7 15.31 106.029 15.17 106.407 15.17C106.785 15.17 107.107 15.31 107.373 15.59C107.653 15.856 107.793 16.178 107.793 16.556C107.793 16.934 107.653 17.263 107.373 17.543C107.107 17.809 106.785 17.942 106.407 17.942ZM118.399 30.185V23.087C118.399 22.037 117.979 21.512 117.139 21.512C116.677 21.512 116.25 21.701 115.858 22.079C115.48 22.457 115.172 22.975 114.934 23.633C114.71 24.277 114.598 25.012 114.598 25.838L114.178 22.793H114.682C114.976 22.219 115.375 21.743 115.879 21.365C116.397 20.987 117.062 20.798 117.874 20.798C118.7 20.798 119.379 21.022 119.911 21.47C120.443 21.904 120.709 22.443 120.709 23.087V30.185H118.399ZM110.629 30.5V29.975H115.963V30.5H110.629ZM112.288 30.185V21.386H114.598V30.185H112.288ZM116.803 30.5V29.975H122.137V30.5H116.803ZM110.629 21.575V21.05H114.598V21.575H110.629ZM128.662 30.752C127.976 30.752 127.332 30.612 126.73 30.332C126.142 30.052 125.617 29.681 125.155 29.219C124.707 28.743 124.357 28.211 124.105 27.623C123.853 27.021 123.727 26.405 123.727 25.775C123.727 25.145 123.853 24.536 124.105 23.948C124.357 23.346 124.707 22.814 125.155 22.352C125.617 21.876 126.142 21.498 126.73 21.218C127.332 20.938 127.976 20.798 128.662 20.798C129.348 20.798 129.985 20.938 130.573 21.218C131.175 21.498 131.7 21.876 132.148 22.352C132.61 22.814 132.967 23.346 133.219 23.948C133.471 24.536 133.597 25.145 133.597 25.775C133.597 26.405 133.471 27.021 133.219 27.623C132.967 28.211 132.61 28.743 132.148 29.219C131.7 29.681 131.175 30.052 130.573 30.332C129.985 30.612 129.348 30.752 128.662 30.752ZM128.662 30.122C129.194 30.122 129.621 30.003 129.943 29.765C130.265 29.527 130.496 29.1 130.636 28.484C130.79 27.854 130.867 26.951 130.867 25.775C130.867 24.599 130.79 23.696 130.636 23.066C130.496 22.436 130.265 22.009 129.943 21.785C129.621 21.547 129.194 21.428 128.662 21.428C128.13 21.428 127.703 21.547 127.381 21.785C127.059 22.009 126.821 22.436 126.667 23.066C126.527 23.696 126.457 24.599 126.457 25.775C126.457 26.951 126.527 27.854 126.667 28.484C126.821 29.1 127.059 29.527 127.381 29.765C127.703 30.003 128.13 30.122 128.662 30.122Z" fill="#004643"/>
<rect x="1.5" y="1.5" width="156" height="46" rx="7.5" stroke="#004643" stroke-width="3"/>
</svg>
