<svg width="159" height="49" viewBox="0 0 159 49" fill="none" xmlns="http://www.w3.org/2000/svg">
<path d="M40.5 25.544V24.704H50.958V25.544H40.5ZM41.529 20.525V19.685H51.987V20.525H41.529ZM42.117 30.5L44.637 14.477H45.645L43.125 30.5H42.117ZM46.674 30.5L49.194 14.477H50.202L47.682 30.5H46.674ZM52.7619 30.5V29.975H54.4209V21.575H52.7619V21.05H56.7309V22.709H56.8149C57.1649 21.953 57.5639 21.449 58.0119 21.197C58.4739 20.931 58.9009 20.798 59.2929 20.798C59.7409 20.798 60.0909 20.931 60.3429 21.197C60.6089 21.449 60.7419 21.813 60.7419 22.289C60.7419 22.723 60.6089 23.045 60.3429 23.255C60.0909 23.451 59.8039 23.549 59.4819 23.549C59.2159 23.549 58.9709 23.479 58.7469 23.339C58.5369 23.185 58.4319 22.975 58.4319 22.709C58.4319 22.625 58.4389 22.555 58.4529 22.499C58.4809 22.429 58.4949 22.359 58.4949 22.289C58.4949 22.219 58.4739 22.156 58.4319 22.1C58.3899 22.044 58.2989 22.016 58.1589 22.016C57.9769 22.016 57.7739 22.163 57.5499 22.457C57.3259 22.737 57.1299 23.122 56.9619 23.612C56.8079 24.088 56.7309 24.62 56.7309 25.208V29.975H58.6209V30.5H52.7619ZM67.0383 30.752C66.3663 30.752 65.7293 30.619 65.1273 30.353C64.5393 30.073 64.0213 29.702 63.5733 29.24C63.1253 28.764 62.7753 28.232 62.5233 27.644C62.2713 27.042 62.1453 26.419 62.1453 25.775C62.1453 24.921 62.3413 24.116 62.7333 23.36C63.1393 22.604 63.6993 21.988 64.4133 21.512C65.1273 21.036 65.9673 20.798 66.9333 20.798C67.6893 20.798 68.3683 20.973 68.9703 21.323C69.5863 21.659 70.0693 22.135 70.4193 22.751C70.7693 23.367 70.9443 24.074 70.9443 24.872V24.998H64.0773V24.473H68.5083V23.276C68.5083 22.002 67.9483 21.365 66.8283 21.365C66.3663 21.365 65.9883 21.505 65.6943 21.785C65.4143 22.051 65.2043 22.506 65.0643 23.15C64.9383 23.794 64.8753 24.669 64.8753 25.775C64.8753 26.909 64.9453 27.791 65.0853 28.421C65.2253 29.051 65.4563 29.492 65.7783 29.744C66.1143 29.996 66.5553 30.122 67.1013 30.122C67.8433 30.122 68.4873 29.933 69.0333 29.555C69.5793 29.177 70.0413 28.519 70.4193 27.581H71.0073C70.7273 28.561 70.2303 29.338 69.5163 29.912C68.8163 30.472 67.9903 30.752 67.0383 30.752ZM77.1158 30.752C76.5418 30.752 75.9818 30.654 75.4358 30.458C74.9038 30.262 74.4698 30.003 74.1338 29.681L73.8188 30.5H73.2098V27.287H73.8818L73.9868 27.686C74.1828 28.442 74.5328 29.016 75.0368 29.408C75.5548 29.8 76.2408 29.996 77.0948 29.996C77.7948 29.996 78.2848 29.877 78.5648 29.639C78.8448 29.387 78.9848 29.03 78.9848 28.568C78.9848 28.106 78.7958 27.77 78.4178 27.56C78.0398 27.336 77.4588 27.14 76.6748 26.972C76.0028 26.832 75.4148 26.657 74.9108 26.447C74.4208 26.223 74.0358 25.915 73.7558 25.523C73.4758 25.117 73.3358 24.564 73.3358 23.864C73.3358 22.87 73.6228 22.114 74.1968 21.596C74.7708 21.064 75.5898 20.798 76.6538 20.798C77.2558 20.798 77.7738 20.882 78.2078 21.05C78.6558 21.218 78.9708 21.449 79.1528 21.743L79.3838 21.05H79.9298V24.095H79.2788L79.2158 23.78C79.0618 22.996 78.7888 22.429 78.3968 22.079C78.0188 21.729 77.4518 21.554 76.6958 21.554C76.0238 21.554 75.5198 21.687 75.1838 21.953C74.8618 22.205 74.7008 22.562 74.7008 23.024C74.7008 23.248 74.7638 23.451 74.8898 23.633C75.0158 23.801 75.2468 23.955 75.5828 24.095C75.9328 24.235 76.4158 24.375 77.0318 24.515C77.7458 24.669 78.3478 24.865 78.8378 25.103C79.3278 25.341 79.6988 25.656 79.9508 26.048C80.2168 26.44 80.3498 26.951 80.3498 27.581C80.3498 28.547 80.0558 29.317 79.4678 29.891C78.8798 30.465 78.0958 30.752 77.1158 30.752ZM85.7949 30.773C85.0669 30.773 84.5209 30.626 84.1569 30.332C83.8069 30.038 83.6319 29.597 83.6319 29.009V21.596H81.9309V21.071C82.4209 21.029 82.8759 20.84 83.2959 20.504C83.7299 20.154 84.1219 19.713 84.4719 19.181C84.8359 18.649 85.1299 18.068 85.3539 17.438H85.9419V21.071H88.3569V21.596H85.9419V28.862C85.9419 29.492 86.2009 29.807 86.7189 29.807C87.0129 29.807 87.2789 29.709 87.5169 29.513C87.7689 29.303 88.0279 28.96 88.2939 28.484L88.7139 28.715C88.3639 29.485 87.9649 30.024 87.5169 30.332C87.0689 30.626 86.4949 30.773 85.7949 30.773ZM93.0638 30.752C92.3078 30.752 91.6918 30.535 91.2158 30.101C90.7398 29.667 90.5018 29.1 90.5018 28.4C90.5018 27.728 90.7258 27.154 91.1738 26.678C91.6358 26.202 92.2868 25.838 93.1268 25.586C93.9668 25.32 94.9608 25.187 96.1088 25.187V22.625C96.1088 22.261 95.9688 21.974 95.6888 21.764C95.4088 21.554 95.0238 21.449 94.5338 21.449C94.1138 21.449 93.7708 21.519 93.5048 21.659C93.2388 21.799 93.1058 21.981 93.1058 22.205C93.1058 22.345 93.1548 22.471 93.2528 22.583C93.3508 22.695 93.3998 22.87 93.3998 23.108C93.3998 23.402 93.2878 23.647 93.0638 23.843C92.8538 24.025 92.5808 24.116 92.2448 24.116C91.9088 24.116 91.6428 24.018 91.4468 23.822C91.2508 23.612 91.1528 23.353 91.1528 23.045C91.1528 22.625 91.3208 22.247 91.6568 21.911C91.9928 21.561 92.4478 21.288 93.0218 21.092C93.5958 20.896 94.2398 20.798 94.9538 20.798C95.9758 20.798 96.8088 21.001 97.4528 21.407C98.0968 21.799 98.4188 22.317 98.4188 22.961V29.345C98.4188 29.485 98.4608 29.604 98.5448 29.702C98.6428 29.786 98.7548 29.828 98.8808 29.828C99.0068 29.828 99.1538 29.765 99.3218 29.639C99.4898 29.499 99.6998 29.289 99.9518 29.009L100.246 29.345C99.5878 30.283 98.8528 30.752 98.0408 30.752C97.5508 30.752 97.1448 30.619 96.8228 30.353C96.5148 30.073 96.3048 29.688 96.1928 29.198H96.1088C95.8428 29.646 95.4228 30.017 94.8488 30.311C94.2748 30.605 93.6798 30.752 93.0638 30.752ZM94.3238 29.597C94.8558 29.597 95.2828 29.401 95.6048 29.009C95.9408 28.603 96.1088 28.078 96.1088 27.434V25.733C95.0588 25.733 94.2678 25.929 93.7358 26.321C93.2038 26.699 92.9378 27.259 92.9378 28.001C92.9378 28.505 93.0568 28.897 93.2948 29.177C93.5468 29.457 93.8898 29.597 94.3238 29.597ZM101.062 30.5V29.975H102.721V21.575H101.062V21.05H105.031V22.709H105.115C105.465 21.953 105.864 21.449 106.312 21.197C106.774 20.931 107.201 20.798 107.593 20.798C108.041 20.798 108.391 20.931 108.643 21.197C108.909 21.449 109.042 21.813 109.042 22.289C109.042 22.723 108.909 23.045 108.643 23.255C108.391 23.451 108.104 23.549 107.782 23.549C107.516 23.549 107.271 23.479 107.047 23.339C106.837 23.185 106.732 22.975 106.732 22.709C106.732 22.625 106.739 22.555 106.753 22.499C106.781 22.429 106.795 22.359 106.795 22.289C106.795 22.219 106.774 22.156 106.732 22.1C106.69 22.044 106.599 22.016 106.459 22.016C106.277 22.016 106.074 22.163 105.85 22.457C105.626 22.737 105.43 23.122 105.262 23.612C105.108 24.088 105.031 24.62 105.031 25.208V29.975H106.921V30.5H101.062ZM114.459 30.773C113.731 30.773 113.185 30.626 112.821 30.332C112.471 30.038 112.296 29.597 112.296 29.009V21.596H110.595V21.071C111.085 21.029 111.54 20.84 111.96 20.504C112.394 20.154 112.786 19.713 113.136 19.181C113.5 18.649 113.794 18.068 114.018 17.438H114.606V21.071H117.021V21.596H114.606V28.862C114.606 29.492 114.865 29.807 115.383 29.807C115.677 29.807 115.943 29.709 116.181 29.513C116.433 29.303 116.692 28.96 116.958 28.484L117.378 28.715C117.028 29.485 116.629 30.024 116.181 30.332C115.733 30.626 115.159 30.773 114.459 30.773Z" fill="#004643"/>
<rect x="1.5" y="1.5" width="156" height="46" rx="7.5" stroke="#004643" stroke-width="3"/>
</svg>
