<svg width="166" height="49" viewBox="0 0 166 49" fill="none" xmlns="http://www.w3.org/2000/svg">
<path d="M27 25.5567V24.7167H37.458V25.5567H27ZM28.029 20.5377V19.6977H38.487V20.5377H28.029ZM28.617 30.5127L31.137 14.4897H32.145L29.625 30.5127H28.617ZM33.174 30.5127L35.694 14.4897H36.702L34.182 30.5127H33.174ZM52.8699 30.1977V23.0997C52.8699 22.0497 52.4709 21.5247 51.6729 21.5247C51.2249 21.5247 50.8119 21.7137 50.4339 22.0917C50.0559 22.4697 49.7549 22.9877 49.5309 23.6457C49.3069 24.2897 49.1949 25.0247 49.1949 25.8507L48.7749 22.8057H49.2789C49.5589 22.2317 49.9509 21.7557 50.4549 21.3777C50.9729 20.9997 51.6239 20.8107 52.4079 20.8107C53.2199 20.8107 53.8849 21.0347 54.4029 21.4827C54.9209 21.9167 55.1799 22.4557 55.1799 23.0997V30.1977H52.8699ZM39.2409 30.5127V29.9877H44.5749V30.5127H39.2409ZM40.8999 30.1977V21.3987H43.2099V30.1977H40.8999ZM45.2889 30.5127V29.9877H50.6229V30.5127H45.2889ZM39.2409 21.5877V21.0627H43.2099V21.5877H39.2409ZM46.8849 30.1977V23.0997C46.8849 22.0497 46.4859 21.5247 45.6879 21.5247C45.2399 21.5247 44.8269 21.7137 44.4489 22.0917C44.0709 22.4697 43.7699 22.9877 43.5459 23.6457C43.3219 24.2897 43.2099 25.0247 43.2099 25.8507L42.7899 22.8057H43.2939C43.5739 22.2317 43.9659 21.7557 44.4699 21.3777C44.9879 20.9997 45.6389 20.8107 46.4229 20.8107C47.2349 20.8107 47.8999 21.0347 48.4179 21.4827C48.9359 21.9167 49.1949 22.4557 49.1949 23.0997V30.1977H46.8849ZM51.2739 30.5127V29.9877H56.6079V30.5127H51.2739ZM63.0334 30.7647C62.3614 30.7647 61.7244 30.6317 61.1224 30.3657C60.5344 30.0857 60.0164 29.7147 59.5684 29.2527C59.1204 28.7767 58.7704 28.2447 58.5184 27.6567C58.2664 27.0547 58.1404 26.4317 58.1404 25.7877C58.1404 24.9337 58.3364 24.1287 58.7284 23.3727C59.1344 22.6167 59.6944 22.0007 60.4084 21.5247C61.1224 21.0487 61.9624 20.8107 62.9284 20.8107C63.6844 20.8107 64.3634 20.9857 64.9654 21.3357C65.5814 21.6717 66.0644 22.1477 66.4144 22.7637C66.7644 23.3797 66.9394 24.0867 66.9394 24.8847V25.0107H60.0724V24.4857H64.5034V23.2887C64.5034 22.0147 63.9434 21.3777 62.8234 21.3777C62.3614 21.3777 61.9834 21.5177 61.6894 21.7977C61.4094 22.0637 61.1994 22.5187 61.0594 23.1627C60.9334 23.8067 60.8704 24.6817 60.8704 25.7877C60.8704 26.9217 60.9404 27.8037 61.0804 28.4337C61.2204 29.0637 61.4514 29.5047 61.7734 29.7567C62.1094 30.0087 62.5504 30.1347 63.0964 30.1347C63.8384 30.1347 64.4824 29.9457 65.0284 29.5677C65.5744 29.1897 66.0364 28.5317 66.4144 27.5937H67.0024C66.7224 28.5737 66.2254 29.3507 65.5114 29.9247C64.8114 30.4847 63.9854 30.7647 63.0334 30.7647ZM68.6799 30.5127V29.9877H70.3389V21.5877H68.6799V21.0627H72.6489V22.7217H72.7329C73.0829 21.9657 73.4819 21.4617 73.9299 21.2097C74.3919 20.9437 74.8189 20.8107 75.2109 20.8107C75.6589 20.8107 76.0089 20.9437 76.2609 21.2097C76.5269 21.4617 76.6599 21.8257 76.6599 22.3017C76.6599 22.7357 76.5269 23.0577 76.2609 23.2677C76.0089 23.4637 75.7219 23.5617 75.3999 23.5617C75.1339 23.5617 74.8889 23.4917 74.6649 23.3517C74.4549 23.1977 74.3499 22.9877 74.3499 22.7217C74.3499 22.6377 74.3569 22.5677 74.3709 22.5117C74.3989 22.4417 74.4129 22.3717 74.4129 22.3017C74.4129 22.2317 74.3919 22.1687 74.3499 22.1127C74.3079 22.0567 74.2169 22.0287 74.0769 22.0287C73.8949 22.0287 73.6919 22.1757 73.4679 22.4697C73.2439 22.7497 73.0479 23.1347 72.8799 23.6247C72.7259 24.1007 72.6489 24.6327 72.6489 25.2207V29.9877H74.5389V30.5127H68.6799ZM83.0213 30.7647C82.3493 30.7647 81.7193 30.6247 81.1313 30.3447C80.5433 30.0647 80.0253 29.6867 79.5773 29.2107C79.1293 28.7347 78.7793 28.2027 78.5273 27.6147C78.2753 27.0127 78.1493 26.3967 78.1493 25.7667C78.1493 25.1507 78.2753 24.5487 78.5273 23.9607C78.7793 23.3727 79.1293 22.8407 79.5773 22.3647C80.0253 21.8887 80.5573 21.5107 81.1733 21.2307C81.7893 20.9507 82.4613 20.8107 83.1893 20.8107C83.8053 20.8107 84.3653 20.9157 84.8693 21.1257C85.3873 21.3217 85.7933 21.6017 86.0873 21.9657C86.3953 22.3157 86.5493 22.7287 86.5493 23.2047C86.5493 23.6107 86.4303 23.9327 86.1923 24.1707C85.9543 24.4087 85.6533 24.5277 85.2893 24.5277C84.9533 24.5277 84.6523 24.4297 84.3863 24.2337C84.1203 24.0377 83.9873 23.7437 83.9873 23.3517C83.9873 23.1137 84.0293 22.9317 84.1133 22.8057C84.1973 22.6797 84.2813 22.5677 84.3653 22.4697C84.4493 22.3577 84.4913 22.2177 84.4913 22.0497C84.4913 21.8117 84.3793 21.6437 84.1553 21.5457C83.9313 21.4337 83.6023 21.3777 83.1683 21.3777C82.6223 21.3777 82.1813 21.4967 81.8453 21.7347C81.5093 21.9727 81.2643 22.4137 81.1103 23.0577C80.9563 23.6877 80.8793 24.6047 80.8793 25.8087C80.8793 26.9427 80.9493 27.8247 81.0893 28.4547C81.2293 29.0847 81.4603 29.5257 81.7823 29.7777C82.1043 30.0157 82.5383 30.1347 83.0843 30.1347C83.8543 30.1347 84.4913 29.9247 84.9953 29.5047C85.5133 29.0847 85.9613 28.3777 86.3393 27.3837H86.9273C86.6613 28.3917 86.1923 29.2107 85.5203 29.8407C84.8623 30.4567 84.0293 30.7647 83.0213 30.7647ZM91.3558 30.7647C90.5998 30.7647 89.9838 30.5477 89.5078 30.1137C89.0318 29.6797 88.7938 29.1127 88.7938 28.4127C88.7938 27.7407 89.0178 27.1667 89.4658 26.6907C89.9278 26.2147 90.5788 25.8507 91.4188 25.5987C92.2588 25.3327 93.2528 25.1997 94.4008 25.1997V22.6377C94.4008 22.2737 94.2608 21.9867 93.9808 21.7767C93.7008 21.5667 93.3158 21.4617 92.8258 21.4617C92.4058 21.4617 92.0628 21.5317 91.7968 21.6717C91.5308 21.8117 91.3978 21.9937 91.3978 22.2177C91.3978 22.3577 91.4468 22.4837 91.5448 22.5957C91.6428 22.7077 91.6918 22.8827 91.6918 23.1207C91.6918 23.4147 91.5798 23.6597 91.3558 23.8557C91.1458 24.0377 90.8728 24.1287 90.5368 24.1287C90.2008 24.1287 89.9348 24.0307 89.7388 23.8347C89.5428 23.6247 89.4448 23.3657 89.4448 23.0577C89.4448 22.6377 89.6128 22.2597 89.9488 21.9237C90.2848 21.5737 90.7398 21.3007 91.3138 21.1047C91.8878 20.9087 92.5318 20.8107 93.2458 20.8107C94.2678 20.8107 95.1008 21.0137 95.7448 21.4197C96.3888 21.8117 96.7108 22.3297 96.7108 22.9737V29.3577C96.7108 29.4977 96.7528 29.6167 96.8368 29.7147C96.9348 29.7987 97.0468 29.8407 97.1728 29.8407C97.2988 29.8407 97.4458 29.7777 97.6138 29.6517C97.7818 29.5117 97.9918 29.3017 98.2438 29.0217L98.5378 29.3577C97.8798 30.2957 97.1448 30.7647 96.3328 30.7647C95.8428 30.7647 95.4368 30.6317 95.1148 30.3657C94.8068 30.0857 94.5968 29.7007 94.4848 29.2107H94.4008C94.1348 29.6587 93.7148 30.0297 93.1408 30.3237C92.5668 30.6177 91.9718 30.7647 91.3558 30.7647ZM92.6158 29.6097C93.1478 29.6097 93.5748 29.4137 93.8968 29.0217C94.2328 28.6157 94.4008 28.0907 94.4008 27.4467V25.7457C93.3508 25.7457 92.5598 25.9417 92.0278 26.3337C91.4958 26.7117 91.2298 27.2717 91.2298 28.0137C91.2298 28.5177 91.3488 28.9097 91.5868 29.1897C91.8388 29.4697 92.1818 29.6097 92.6158 29.6097ZM102.882 30.7857C102.154 30.7857 101.608 30.6387 101.244 30.3447C100.894 30.0507 100.719 29.6097 100.719 29.0217V21.6087H99.0179V21.0837C99.5079 21.0417 99.9629 20.8527 100.383 20.5167C100.817 20.1667 101.209 19.7257 101.559 19.1937C101.923 18.6617 102.217 18.0807 102.441 17.4507H103.029V21.0837H105.444V21.6087H103.029V28.8747C103.029 29.5047 103.288 29.8197 103.806 29.8197C104.1 29.8197 104.366 29.7217 104.604 29.5257C104.856 29.3157 105.115 28.9727 105.381 28.4967L105.801 28.7277C105.451 29.4977 105.052 30.0367 104.604 30.3447C104.156 30.6387 103.582 30.7857 102.882 30.7857ZM108.794 30.1977V21.5877H111.104V30.1977H108.794ZM107.135 30.5127V29.9877H112.784V30.5127H107.135ZM106.925 21.7767V21.2517H111.104V21.7767H106.925ZM109.907 17.9547C109.529 17.9547 109.2 17.8217 108.92 17.5557C108.654 17.2757 108.521 16.9467 108.521 16.5687C108.521 16.1907 108.654 15.8687 108.92 15.6027C109.2 15.3227 109.529 15.1827 109.907 15.1827C110.285 15.1827 110.607 15.3227 110.873 15.6027C111.153 15.8687 111.293 16.1907 111.293 16.5687C111.293 16.9467 111.153 17.2757 110.873 17.5557C110.607 17.8217 110.285 17.9547 109.907 17.9547ZM121.899 30.1977V23.0997C121.899 22.0497 121.479 21.5247 120.639 21.5247C120.177 21.5247 119.75 21.7137 119.358 22.0917C118.98 22.4697 118.672 22.9877 118.434 23.6457C118.21 24.2897 118.098 25.0247 118.098 25.8507L117.678 22.8057H118.182C118.476 22.2317 118.875 21.7557 119.379 21.3777C119.897 20.9997 120.562 20.8107 121.374 20.8107C122.2 20.8107 122.879 21.0347 123.411 21.4827C123.943 21.9167 124.209 22.4557 124.209 23.0997V30.1977H121.899ZM114.129 30.5127V29.9877H119.463V30.5127H114.129ZM115.788 30.1977V21.3987H118.098V30.1977H115.788ZM120.303 30.5127V29.9877H125.637V30.5127H120.303ZM114.129 21.5877V21.0627H118.098V21.5877H114.129ZM132.162 30.7647C131.476 30.7647 130.832 30.6247 130.23 30.3447C129.642 30.0647 129.117 29.6937 128.655 29.2317C128.207 28.7557 127.857 28.2237 127.605 27.6357C127.353 27.0337 127.227 26.4177 127.227 25.7877C127.227 25.1577 127.353 24.5487 127.605 23.9607C127.857 23.3587 128.207 22.8267 128.655 22.3647C129.117 21.8887 129.642 21.5107 130.23 21.2307C130.832 20.9507 131.476 20.8107 132.162 20.8107C132.848 20.8107 133.485 20.9507 134.073 21.2307C134.675 21.5107 135.2 21.8887 135.648 22.3647C136.11 22.8267 136.467 23.3587 136.719 23.9607C136.971 24.5487 137.097 25.1577 137.097 25.7877C137.097 26.4177 136.971 27.0337 136.719 27.6357C136.467 28.2237 136.11 28.7557 135.648 29.2317C135.2 29.6937 134.675 30.0647 134.073 30.3447C133.485 30.6247 132.848 30.7647 132.162 30.7647ZM132.162 30.1347C132.694 30.1347 133.121 30.0157 133.443 29.7777C133.765 29.5397 133.996 29.1127 134.136 28.4967C134.29 27.8667 134.367 26.9637 134.367 25.7877C134.367 24.6117 134.29 23.7087 134.136 23.0787C133.996 22.4487 133.765 22.0217 133.443 21.7977C133.121 21.5597 132.694 21.4407 132.162 21.4407C131.63 21.4407 131.203 21.5597 130.881 21.7977C130.559 22.0217 130.321 22.4487 130.167 23.0787C130.027 23.7087 129.957 24.6117 129.957 25.7877C129.957 26.9637 130.027 27.8667 130.167 28.4967C130.321 29.1127 130.559 29.5397 130.881 29.7777C131.203 30.0157 131.63 30.1347 132.162 30.1347Z" fill="white"/>
<rect x="1.5" y="2.49048" width="163" height="44.0444" rx="7.5" stroke="white" stroke-width="3"/>
</svg>
