<svg width="169" height="48" viewBox="0 0 169 48" fill="none" xmlns="http://www.w3.org/2000/svg">
<path d="M45.029 20.5219H47.192L46.52 24.7009H44V25.5409H46.394L45.617 30.4969H46.625L47.402 25.5409H50.951L50.174 30.4969H51.182L51.959 25.5409H54.458V24.7009H52.085L52.757 20.5219H55.487V19.6819H52.883L53.702 14.4739H52.694L51.875 19.6819H48.326L49.145 14.4739H48.137L47.318 19.6819H45.029V20.5219ZM48.2 20.5219H51.749L51.077 24.7009H47.528L48.2 20.5219ZM56.2409 21.5719H57.8999V29.9719H56.2409V30.4969H61.5749V29.9719H60.2099V25.6669C60.2099 23.2939 61.3439 21.5089 62.6879 21.5089C63.4439 21.5089 63.8849 22.0339 63.8849 23.0839V29.9719H62.2889V30.4969H67.6229V29.9719H66.1949V25.8349C66.1949 23.3779 67.3079 21.5089 68.6729 21.5089C69.4289 21.5089 69.8699 22.0339 69.8699 23.0839V29.9719H68.2739V30.4969H73.6079V29.9719H72.1799V23.0839C72.1799 21.8029 71.0249 20.7949 69.4079 20.7949C67.8329 20.7949 66.8459 21.6349 66.2789 22.7899H66.1739C66.0059 21.6559 64.9139 20.7949 63.4229 20.7949C61.8479 20.7949 60.8609 21.6349 60.2939 22.7899H60.2099V21.0469H56.2409V21.5719ZM84.3174 21.0469H80.2854V21.5719H82.0074V25.8979C82.0074 28.2079 80.7894 29.9719 79.5504 29.9719C78.8154 29.9719 78.3744 29.4469 78.3744 28.3969V21.0469H74.4264V21.5719H76.0644V28.4599C76.0644 29.7409 77.1984 30.7489 78.8154 30.7489C80.3694 30.7489 81.3144 29.9509 81.9234 28.8589H82.0074V30.4969H85.9764V29.9719H84.3174V21.0469ZM91.4849 30.7489C93.4379 30.7489 94.7189 29.5099 94.7189 27.5779C94.7189 25.6879 93.5219 24.9949 91.4009 24.5119C89.5319 24.0919 89.0699 23.7139 89.0699 23.0209C89.0699 22.0969 89.7209 21.5509 91.0649 21.5509C92.5769 21.5509 93.2699 22.2229 93.5849 23.7769L93.6479 24.0919H94.2989V21.0469H93.7529L93.5219 21.7399C93.1649 21.1519 92.2199 20.7949 91.0229 20.7949C88.9019 20.7949 87.7049 21.8869 87.7049 23.8609C87.7049 25.9609 89.0279 26.5489 91.0439 26.9689C92.6189 27.3049 93.3539 27.6409 93.3539 28.5649C93.3539 29.4889 92.8499 29.9929 91.4639 29.9929C89.7419 29.9929 88.7549 29.1949 88.3559 27.6829L88.2509 27.2839H87.5789V30.4969H88.1879L88.5029 29.6779C89.1749 30.3289 90.3299 30.7489 91.4849 30.7489ZM96.4089 21.5719H98.2779V29.9719H96.6189V30.4969H102.268V29.9719H100.588V21.0469H96.4089V21.5719ZM97.9839 16.4899C97.9839 17.2459 98.6139 17.8759 99.3699 17.8759C100.126 17.8759 100.756 17.2459 100.756 16.4899C100.756 15.7339 100.126 15.1039 99.3699 15.1039C98.6139 15.1039 97.9839 15.7339 97.9839 16.4899ZM109.074 21.3619C109.935 21.3619 110.397 21.5719 110.397 22.0339C110.397 22.5379 109.893 22.6219 109.893 23.3359C109.893 24.1129 110.523 24.5119 111.195 24.5119C111.93 24.5119 112.455 24.0079 112.455 23.1889C112.455 21.7819 110.943 20.7949 109.095 20.7949C106.176 20.7949 104.055 23.2939 104.055 25.7509C104.055 28.2499 106.26 30.7489 108.927 30.7489C110.943 30.7489 112.287 29.3839 112.833 27.3679H112.245C111.489 29.3629 110.523 30.1189 108.99 30.1189C107.373 30.1189 106.785 29.1949 106.785 25.7929C106.785 22.2019 107.436 21.3619 109.074 21.3619ZM117.261 30.7489C118.5 30.7489 119.781 30.0979 120.306 29.1949H120.39C120.6 30.1819 121.251 30.7489 122.238 30.7489C123.099 30.7489 123.771 30.3079 124.443 29.3419L124.149 29.0059C123.645 29.5729 123.33 29.8249 123.078 29.8249C122.826 29.8249 122.616 29.6149 122.616 29.3419V22.9579C122.616 21.6769 121.188 20.7949 119.151 20.7949C117.009 20.7949 115.35 21.7819 115.35 23.0419C115.35 23.6719 115.77 24.1129 116.442 24.1129C117.114 24.1129 117.597 23.6929 117.597 23.1049C117.597 22.6429 117.303 22.4959 117.303 22.2019C117.303 21.7609 117.891 21.4459 118.731 21.4459C119.718 21.4459 120.306 21.8869 120.306 22.6219V25.1839C116.841 25.1839 114.699 26.4019 114.699 28.3969C114.699 29.8039 115.749 30.7489 117.261 30.7489ZM118.521 29.5939C117.639 29.5939 117.135 29.0059 117.135 27.9979C117.135 26.5069 118.206 25.7299 120.306 25.7299V27.4309C120.306 28.7329 119.592 29.5939 118.521 29.5939Z" fill="white"/>
<rect x="1.5" y="2.49695" width="166" height="44" rx="7.5" stroke="white" stroke-width="3"/>
</svg>
