<svg width="169" height="49" viewBox="0 0 169 49" fill="none" xmlns="http://www.w3.org/2000/svg">
<path d="M54.03 20.5248H56.193L55.521 24.7038H53.001V25.5438H55.395L54.618 30.4998H55.626L56.403 25.5438H59.952L59.175 30.4998H60.183L60.96 25.5438H63.459V24.7038H61.086L61.758 20.5248H64.488V19.6848H61.884L62.703 14.4768H61.695L60.876 19.6848H57.327L58.146 14.4768H57.138L56.319 19.6848H54.03V20.5248ZM57.201 20.5248H60.75L60.078 24.7038H56.529L57.201 20.5248ZM64.8638 21.5748H66.5228V36.5688H65.0738V37.0938H70.9328V36.5688H68.8328V29.2818H68.9168C69.3788 30.1218 70.4078 30.7518 71.7098 30.7518C73.8098 30.7518 75.7838 28.7568 75.7838 25.7748C75.7838 22.7928 73.8308 20.7978 71.7308 20.7978C70.4288 20.7978 69.3788 21.4278 68.9168 22.2678H68.8328V21.0498H64.8638V21.5748ZM71.4788 30.0378C70.0088 30.0378 68.8328 28.8828 68.8328 26.2998V25.2708C68.8328 22.6878 69.9878 21.5118 71.4578 21.5118C72.6338 21.5118 73.0958 22.3308 73.0958 25.7958C73.0958 29.2608 72.6548 30.0378 71.4788 30.0378ZM80.4485 30.7518C81.6875 30.7518 82.9685 30.1008 83.4935 29.1978H83.5775C83.7875 30.1848 84.4385 30.7518 85.4255 30.7518C86.2865 30.7518 86.9585 30.3108 87.6305 29.3448L87.3365 29.0088C86.8325 29.5758 86.5175 29.8278 86.2655 29.8278C86.0135 29.8278 85.8035 29.6178 85.8035 29.3448V22.9608C85.8035 21.6798 84.3755 20.7978 82.3385 20.7978C80.1965 20.7978 78.5375 21.7848 78.5375 23.0448C78.5375 23.6748 78.9575 24.1158 79.6295 24.1158C80.3015 24.1158 80.7845 23.6958 80.7845 23.1078C80.7845 22.6458 80.4905 22.4988 80.4905 22.2048C80.4905 21.7638 81.0785 21.4488 81.9185 21.4488C82.9055 21.4488 83.4935 21.8898 83.4935 22.6248V25.1868C80.0285 25.1868 77.8865 26.4048 77.8865 28.3998C77.8865 29.8068 78.9365 30.7518 80.4485 30.7518ZM81.7085 29.5968C80.8265 29.5968 80.3225 29.0088 80.3225 28.0008C80.3225 26.5098 81.3935 25.7328 83.4935 25.7328V27.4338C83.4935 28.7358 82.7795 29.5968 81.7085 29.5968ZM88.4465 21.5748H90.1055V29.9748H88.4465V30.4998H94.3055V29.9748H92.4155V25.2078C92.4155 23.4648 93.2765 22.0158 93.8435 22.0158C94.1165 22.0158 94.1795 22.1418 94.1795 22.2888C94.1795 22.4358 94.1165 22.5408 94.1165 22.7088C94.1165 23.2338 94.6415 23.5488 95.1665 23.5488C95.7965 23.5488 96.4265 23.1498 96.4265 22.2888C96.4265 21.3438 95.8595 20.7978 94.9775 20.7978C94.2005 20.7978 93.1925 21.1968 92.4995 22.7088H92.4155V21.0498H88.4465V21.5748ZM101.844 30.7728C103.251 30.7728 104.049 30.2478 104.763 28.7148L104.343 28.4838C103.797 29.4288 103.356 29.8068 102.768 29.8068C102.243 29.8068 101.991 29.5128 101.991 28.8618V21.5958H104.406V21.0708H101.991V17.4378H101.403C100.71 19.3278 99.4287 20.9448 97.9797 21.0708V21.5958H99.6807V29.0088C99.6807 30.1848 100.374 30.7728 101.844 30.7728ZM105.131 21.5748H106.37L110.339 30.1428L108.491 35.2878C108.407 35.5398 108.281 35.7708 108.071 35.7708C107.672 35.7708 107.525 34.9728 106.685 34.9728C106.076 34.9728 105.614 35.4138 105.614 36.0858C105.614 36.6108 105.908 37.3458 106.958 37.3458C107.714 37.3458 108.47 36.9258 109.184 35.0358L114.161 21.5748H115.799V21.0498H111.851V21.5748H113.405L111.41 27.1608H111.326L108.953 21.5748H110.339V21.0498H105.131V21.5748Z" fill="white"/>
<rect x="1.50098" y="1.49976" width="166" height="46" rx="7.5" stroke="white" stroke-width="3"/>
</svg>
