<svg width="159" height="49" viewBox="0 0 159 49" fill="none" xmlns="http://www.w3.org/2000/svg">
<path d="M48 25.544V24.704H58.458V25.544H48ZM49.029 20.525V19.685H59.487V20.525H49.029ZM49.617 30.5L52.137 14.477H53.145L50.625 30.5H49.617ZM54.174 30.5L56.694 14.477H57.702L55.182 30.5H54.174ZM66.7089 30.752C66.0649 30.752 65.4979 30.612 65.0079 30.332C64.5179 30.052 64.1539 29.702 63.9159 29.282H63.4119L63.8319 26.09C63.8319 27.448 64.0839 28.449 64.5879 29.093C65.0919 29.723 65.7219 30.038 66.4779 30.038C66.8699 30.038 67.1849 29.926 67.4229 29.702C67.6609 29.478 67.8289 29.058 67.9269 28.442C68.0389 27.826 68.0949 26.944 68.0949 25.796C68.0949 24.634 68.0389 23.745 67.9269 23.129C67.8149 22.513 67.6399 22.093 67.4019 21.869C67.1639 21.631 66.8489 21.512 66.4569 21.512C65.7009 21.512 65.0709 21.827 64.5669 22.457C64.0769 23.087 63.8319 24.088 63.8319 25.46L63.4119 22.268H63.9159C64.1539 21.848 64.5179 21.498 65.0079 21.218C65.5119 20.938 66.0859 20.798 66.7299 20.798C67.4299 20.798 68.0879 21.008 68.7039 21.428C69.3199 21.834 69.8169 22.415 70.1949 23.171C70.5869 23.913 70.7829 24.781 70.7829 25.775C70.7829 26.769 70.5869 27.644 70.1949 28.4C69.8169 29.142 69.3129 29.723 68.6829 30.143C68.0669 30.549 67.4089 30.752 66.7089 30.752ZM60.0729 37.094V36.569H65.9319V37.094H60.0729ZM61.5219 36.779V21.386H63.8319V36.779H61.5219ZM59.8629 21.575V21.05H63.8319V21.575H59.8629ZM75.4475 30.752C74.6915 30.752 74.0755 30.535 73.5995 30.101C73.1235 29.667 72.8855 29.1 72.8855 28.4C72.8855 27.728 73.1095 27.154 73.5575 26.678C74.0195 26.202 74.6705 25.838 75.5105 25.586C76.3505 25.32 77.3445 25.187 78.4925 25.187V22.625C78.4925 22.261 78.3525 21.974 78.0725 21.764C77.7925 21.554 77.4075 21.449 76.9175 21.449C76.4975 21.449 76.1545 21.519 75.8885 21.659C75.6225 21.799 75.4895 21.981 75.4895 22.205C75.4895 22.345 75.5385 22.471 75.6365 22.583C75.7345 22.695 75.7835 22.87 75.7835 23.108C75.7835 23.402 75.6715 23.647 75.4475 23.843C75.2375 24.025 74.9645 24.116 74.6285 24.116C74.2925 24.116 74.0265 24.018 73.8305 23.822C73.6345 23.612 73.5365 23.353 73.5365 23.045C73.5365 22.625 73.7045 22.247 74.0405 21.911C74.3765 21.561 74.8315 21.288 75.4055 21.092C75.9795 20.896 76.6235 20.798 77.3375 20.798C78.3595 20.798 79.1925 21.001 79.8365 21.407C80.4805 21.799 80.8025 22.317 80.8025 22.961V29.345C80.8025 29.485 80.8445 29.604 80.9285 29.702C81.0265 29.786 81.1385 29.828 81.2645 29.828C81.3905 29.828 81.5375 29.765 81.7055 29.639C81.8735 29.499 82.0835 29.289 82.3355 29.009L82.6295 29.345C81.9715 30.283 81.2365 30.752 80.4245 30.752C79.9345 30.752 79.5285 30.619 79.2065 30.353C78.8985 30.073 78.6885 29.688 78.5765 29.198H78.4925C78.2265 29.646 77.8065 30.017 77.2325 30.311C76.6585 30.605 76.0635 30.752 75.4475 30.752ZM76.7075 29.597C77.2395 29.597 77.6665 29.401 77.9885 29.009C78.3245 28.603 78.4925 28.078 78.4925 27.434V25.733C77.4425 25.733 76.6515 25.929 76.1195 26.321C75.5875 26.699 75.3215 27.259 75.3215 28.001C75.3215 28.505 75.4405 28.897 75.6785 29.177C75.9305 29.457 76.2735 29.597 76.7075 29.597ZM83.4455 30.5V29.975H85.1045V21.575H83.4455V21.05H87.4145V22.709H87.4985C87.8485 21.953 88.2475 21.449 88.6955 21.197C89.1575 20.931 89.5845 20.798 89.9765 20.798C90.4245 20.798 90.7745 20.931 91.0265 21.197C91.2925 21.449 91.4255 21.813 91.4255 22.289C91.4255 22.723 91.2925 23.045 91.0265 23.255C90.7745 23.451 90.4875 23.549 90.1655 23.549C89.8995 23.549 89.6545 23.479 89.4305 23.339C89.2205 23.185 89.1155 22.975 89.1155 22.709C89.1155 22.625 89.1225 22.555 89.1365 22.499C89.1645 22.429 89.1785 22.359 89.1785 22.289C89.1785 22.219 89.1575 22.156 89.1155 22.1C89.0735 22.044 88.9825 22.016 88.8425 22.016C88.6605 22.016 88.4575 22.163 88.2335 22.457C88.0095 22.737 87.8135 23.122 87.6455 23.612C87.4915 24.088 87.4145 24.62 87.4145 25.208V29.975H89.3045V30.5H83.4455ZM96.8427 30.773C96.1147 30.773 95.5687 30.626 95.2047 30.332C94.8547 30.038 94.6797 29.597 94.6797 29.009V21.596H92.9787V21.071C93.4687 21.029 93.9237 20.84 94.3437 20.504C94.7777 20.154 95.1697 19.713 95.5197 19.181C95.8837 18.649 96.1777 18.068 96.4017 17.438H96.9897V21.071H99.4047V21.596H96.9897V28.862C96.9897 29.492 97.2487 29.807 97.7667 29.807C98.0607 29.807 98.3267 29.709 98.5647 29.513C98.8167 29.303 99.0757 28.96 99.3417 28.484L99.7617 28.715C99.4117 29.485 99.0127 30.024 98.5647 30.332C98.1167 30.626 97.5427 30.773 96.8427 30.773ZM101.957 37.346C101.607 37.346 101.334 37.276 101.138 37.136C100.942 36.996 100.802 36.828 100.718 36.632C100.648 36.436 100.613 36.254 100.613 36.086C100.613 35.75 100.711 35.477 100.907 35.267C101.117 35.071 101.376 34.973 101.684 34.973C101.964 34.973 102.181 35.036 102.335 35.162C102.489 35.302 102.615 35.435 102.713 35.561C102.825 35.701 102.944 35.771 103.07 35.771C103.182 35.771 103.266 35.722 103.322 35.624C103.392 35.526 103.448 35.414 103.49 35.288L108.467 21.428H109.223L104.183 35.036C103.833 35.974 103.469 36.59 103.091 36.884C102.713 37.192 102.335 37.346 101.957 37.346ZM105.359 30.185L101.222 21.26L103.763 21.134L106.346 27.161H106.472L105.359 30.185ZM100.13 21.575V21.05H105.338V21.575H100.13ZM106.85 21.575V21.05H110.798V21.575H106.85Z" fill="#004643"/>
<rect x="1.5" y="1.5" width="156" height="46" rx="7.5" stroke="#004643" stroke-width="3"/>
</svg>
