<svg width="169" height="48" viewBox="0 0 169 48" fill="none" xmlns="http://www.w3.org/2000/svg">
<path d="M46.5 25.5409V24.7009H56.958V25.5409H46.5ZM47.529 20.5219V19.6819H57.987V20.5219H47.529ZM48.117 30.4969L50.637 14.4739H51.645L49.125 30.4969H48.117ZM52.674 30.4969L55.194 14.4739H56.202L53.682 30.4969H52.674ZM58.7619 30.4969V29.9719H60.4209V21.5719H58.7619V21.0469H62.7309V22.7059H62.8149C63.1649 21.9499 63.5639 21.4459 64.0119 21.1939C64.4739 20.9279 64.9009 20.7949 65.2929 20.7949C65.7409 20.7949 66.0909 20.9279 66.3429 21.1939C66.6089 21.4459 66.7419 21.8099 66.7419 22.2859C66.7419 22.7199 66.6089 23.0419 66.3429 23.2519C66.0909 23.4479 65.8039 23.5459 65.4819 23.5459C65.2159 23.5459 64.9709 23.4759 64.7469 23.3359C64.5369 23.1819 64.4319 22.9719 64.4319 22.7059C64.4319 22.6219 64.4389 22.5519 64.4529 22.4959C64.4809 22.4259 64.4949 22.3559 64.4949 22.2859C64.4949 22.2159 64.4739 22.1529 64.4319 22.0969C64.3899 22.0409 64.2989 22.0129 64.1589 22.0129C63.9769 22.0129 63.7739 22.1599 63.5499 22.4539C63.3259 22.7339 63.1299 23.1189 62.9619 23.6089C62.8079 24.0849 62.7309 24.6169 62.7309 25.2049V29.9719H64.6209V30.4969H58.7619ZM70.2525 30.1819V21.5719H72.5625V30.1819H70.2525ZM68.5935 30.4969V29.9719H74.2425V30.4969H68.5935ZM68.3835 21.7609V21.2359H72.5625V21.7609H68.3835ZM71.3655 17.9389C70.9875 17.9389 70.6585 17.8059 70.3785 17.5399C70.1125 17.2599 69.9795 16.9309 69.9795 16.5529C69.9795 16.1749 70.1125 15.8529 70.3785 15.5869C70.6585 15.3069 70.9875 15.1669 71.3655 15.1669C71.7435 15.1669 72.0655 15.3069 72.3315 15.5869C72.6115 15.8529 72.7515 16.1749 72.7515 16.5529C72.7515 16.9309 72.6115 17.2599 72.3315 17.5399C72.0655 17.8059 71.7435 17.9389 71.3655 17.9389ZM80.9011 30.7489C80.2291 30.7489 79.5991 30.6089 79.0111 30.3289C78.4231 30.0489 77.9051 29.6709 77.4571 29.1949C77.0091 28.7189 76.6591 28.1869 76.4071 27.5989C76.1551 26.9969 76.0291 26.3809 76.0291 25.7509C76.0291 25.1349 76.1551 24.5329 76.4071 23.9449C76.6591 23.3569 77.0091 22.8249 77.4571 22.3489C77.9051 21.8729 78.4371 21.4949 79.0531 21.2149C79.6691 20.9349 80.3411 20.7949 81.0691 20.7949C81.6851 20.7949 82.2451 20.8999 82.7491 21.1099C83.2671 21.3059 83.6731 21.5859 83.9671 21.9499C84.2751 22.2999 84.4291 22.7129 84.4291 23.1889C84.4291 23.5949 84.3101 23.9169 84.0721 24.1549C83.8341 24.3929 83.5331 24.5119 83.1691 24.5119C82.8331 24.5119 82.5321 24.4139 82.2661 24.2179C82.0001 24.0219 81.8671 23.7279 81.8671 23.3359C81.8671 23.0979 81.9091 22.9159 81.9931 22.7899C82.0771 22.6639 82.1611 22.5519 82.2451 22.4539C82.3291 22.3419 82.3711 22.2019 82.3711 22.0339C82.3711 21.7959 82.2591 21.6279 82.0351 21.5299C81.8111 21.4179 81.4821 21.3619 81.0481 21.3619C80.5021 21.3619 80.0611 21.4809 79.7251 21.7189C79.3891 21.9569 79.1441 22.3979 78.9901 23.0419C78.8361 23.6719 78.7591 24.5889 78.7591 25.7929C78.7591 26.9269 78.8291 27.8089 78.9691 28.4389C79.1091 29.0689 79.3401 29.5099 79.6621 29.7619C79.9841 29.9999 80.4181 30.1189 80.9641 30.1189C81.7341 30.1189 82.3711 29.9089 82.8751 29.4889C83.3931 29.0689 83.8411 28.3619 84.2191 27.3679H84.8071C84.5411 28.3759 84.0721 29.1949 83.4001 29.8249C82.7421 30.4409 81.9091 30.7489 80.9011 30.7489ZM88.2067 30.1819V21.5719H90.5167V30.1819H88.2067ZM86.5477 30.4969V29.9719H92.1967V30.4969H86.5477ZM86.3377 21.7609V21.2359H90.5167V21.7609H86.3377ZM89.3197 17.9389C88.9417 17.9389 88.6127 17.8059 88.3327 17.5399C88.0667 17.2599 87.9337 16.9309 87.9337 16.5529C87.9337 16.1749 88.0667 15.8529 88.3327 15.5869C88.6127 15.3069 88.9417 15.1669 89.3197 15.1669C89.6977 15.1669 90.0197 15.3069 90.2857 15.5869C90.5657 15.8529 90.7057 16.1749 90.7057 16.5529C90.7057 16.9309 90.5657 17.2599 90.2857 17.5399C90.0197 17.8059 89.6977 17.9389 89.3197 17.9389ZM98.8553 30.7489C98.1833 30.7489 97.5533 30.6089 96.9653 30.3289C96.3773 30.0489 95.8593 29.6709 95.4113 29.1949C94.9633 28.7189 94.6133 28.1869 94.3613 27.5989C94.1093 26.9969 93.9833 26.3809 93.9833 25.7509C93.9833 25.1349 94.1093 24.5329 94.3613 23.9449C94.6133 23.3569 94.9633 22.8249 95.4113 22.3489C95.8593 21.8729 96.3913 21.4949 97.0073 21.2149C97.6233 20.9349 98.2953 20.7949 99.0233 20.7949C99.6393 20.7949 100.199 20.8999 100.703 21.1099C101.221 21.3059 101.627 21.5859 101.921 21.9499C102.229 22.2999 102.383 22.7129 102.383 23.1889C102.383 23.5949 102.264 23.9169 102.026 24.1549C101.788 24.3929 101.487 24.5119 101.123 24.5119C100.787 24.5119 100.486 24.4139 100.22 24.2179C99.9543 24.0219 99.8213 23.7279 99.8213 23.3359C99.8213 23.0979 99.8633 22.9159 99.9473 22.7899C100.031 22.6639 100.115 22.5519 100.199 22.4539C100.283 22.3419 100.325 22.2019 100.325 22.0339C100.325 21.7959 100.213 21.6279 99.9893 21.5299C99.7653 21.4179 99.4363 21.3619 99.0023 21.3619C98.4563 21.3619 98.0153 21.4809 97.6793 21.7189C97.3433 21.9569 97.0983 22.3979 96.9443 23.0419C96.7903 23.6719 96.7133 24.5889 96.7133 25.7929C96.7133 26.9269 96.7833 27.8089 96.9233 28.4389C97.0633 29.0689 97.2943 29.5099 97.6163 29.7619C97.9383 29.9999 98.3723 30.1189 98.9183 30.1189C99.6883 30.1189 100.325 29.9089 100.829 29.4889C101.347 29.0689 101.795 28.3619 102.173 27.3679H102.761C102.495 28.3759 102.026 29.1949 101.354 29.8249C100.696 30.4409 99.8633 30.7489 98.8553 30.7489ZM105.699 30.1819V14.9989H108.009V30.1819H105.699ZM104.04 30.4969V29.9719H109.689V30.4969H104.04ZM104.04 15.1879V14.6629H108.009V15.1879H104.04ZM116.092 30.7489C115.406 30.7489 114.762 30.6089 114.16 30.3289C113.572 30.0489 113.047 29.6779 112.585 29.2159C112.137 28.7399 111.787 28.2079 111.535 27.6199C111.283 27.0179 111.157 26.4019 111.157 25.7719C111.157 25.1419 111.283 24.5329 111.535 23.9449C111.787 23.3429 112.137 22.8109 112.585 22.3489C113.047 21.8729 113.572 21.4949 114.16 21.2149C114.762 20.9349 115.406 20.7949 116.092 20.7949C116.778 20.7949 117.415 20.9349 118.003 21.2149C118.605 21.4949 119.13 21.8729 119.578 22.3489C120.04 22.8109 120.397 23.3429 120.649 23.9449C120.901 24.5329 121.027 25.1419 121.027 25.7719C121.027 26.4019 120.901 27.0179 120.649 27.6199C120.397 28.2079 120.04 28.7399 119.578 29.2159C119.13 29.6779 118.605 30.0489 118.003 30.3289C117.415 30.6089 116.778 30.7489 116.092 30.7489ZM116.092 30.1189C116.624 30.1189 117.051 29.9999 117.373 29.7619C117.695 29.5239 117.926 29.0969 118.066 28.4809C118.22 27.8509 118.297 26.9479 118.297 25.7719C118.297 24.5959 118.22 23.6929 118.066 23.0629C117.926 22.4329 117.695 22.0059 117.373 21.7819C117.051 21.5439 116.624 21.4249 116.092 21.4249C115.56 21.4249 115.133 21.5439 114.811 21.7819C114.489 22.0059 114.251 22.4329 114.097 23.0629C113.957 23.6929 113.887 24.5959 113.887 25.7719C113.887 26.9479 113.957 27.8509 114.097 28.4809C114.251 29.0969 114.489 29.5239 114.811 29.7619C115.133 29.9999 115.56 30.1189 116.092 30.1189Z" fill="white"/>
<rect x="1.5" y="2.49695" width="166" height="44" rx="7.5" stroke="white" stroke-width="3"/>
</svg>
