<svg width="159" height="49" viewBox="0 0 159 49" fill="none" xmlns="http://www.w3.org/2000/svg">
<path d="M41.5 25.544V24.704H51.958V25.544H41.5ZM42.529 20.525V19.685H52.987V20.525H42.529ZM43.117 30.5L45.637 14.477H46.645L44.125 30.5H43.117ZM47.674 30.5L50.194 14.477H51.202L48.682 30.5H47.674ZM53.7619 30.5V29.975H55.4209V21.575H53.7619V21.05H57.7309V22.709H57.8149C58.1649 21.953 58.5639 21.449 59.0119 21.197C59.4739 20.931 59.9009 20.798 60.2929 20.798C60.7409 20.798 61.0909 20.931 61.3429 21.197C61.6089 21.449 61.7419 21.813 61.7419 22.289C61.7419 22.723 61.6089 23.045 61.3429 23.255C61.0909 23.451 60.8039 23.549 60.4819 23.549C60.2159 23.549 59.9709 23.479 59.7469 23.339C59.5369 23.185 59.4319 22.975 59.4319 22.709C59.4319 22.625 59.4389 22.555 59.4529 22.499C59.4809 22.429 59.4949 22.359 59.4949 22.289C59.4949 22.219 59.4739 22.156 59.4319 22.1C59.3899 22.044 59.2989 22.016 59.1589 22.016C58.9769 22.016 58.7739 22.163 58.5499 22.457C58.3259 22.737 58.1299 23.122 57.9619 23.612C57.8079 24.088 57.7309 24.62 57.7309 25.208V29.975H59.6209V30.5H53.7619ZM65.2525 30.185V21.575H67.5625V30.185H65.2525ZM63.5935 30.5V29.975H69.2425V30.5H63.5935ZM63.3835 21.764V21.239H67.5625V21.764H63.3835ZM66.3655 17.942C65.9875 17.942 65.6585 17.809 65.3785 17.543C65.1125 17.263 64.9795 16.934 64.9795 16.556C64.9795 16.178 65.1125 15.856 65.3785 15.59C65.6585 15.31 65.9875 15.17 66.3655 15.17C66.7435 15.17 67.0655 15.31 67.3315 15.59C67.6115 15.856 67.7515 16.178 67.7515 16.556C67.7515 16.934 67.6115 17.263 67.3315 17.543C67.0655 17.809 66.7435 17.942 66.3655 17.942ZM75.9011 30.752C75.2291 30.752 74.5991 30.612 74.0111 30.332C73.4231 30.052 72.9051 29.674 72.4571 29.198C72.0091 28.722 71.6591 28.19 71.4071 27.602C71.1551 27 71.0291 26.384 71.0291 25.754C71.0291 25.138 71.1551 24.536 71.4071 23.948C71.6591 23.36 72.0091 22.828 72.4571 22.352C72.9051 21.876 73.4371 21.498 74.0531 21.218C74.6691 20.938 75.3411 20.798 76.0691 20.798C76.6851 20.798 77.2451 20.903 77.7491 21.113C78.2671 21.309 78.6731 21.589 78.9671 21.953C79.2751 22.303 79.4291 22.716 79.4291 23.192C79.4291 23.598 79.3101 23.92 79.0721 24.158C78.8341 24.396 78.5331 24.515 78.1691 24.515C77.8331 24.515 77.5321 24.417 77.2661 24.221C77.0001 24.025 76.8671 23.731 76.8671 23.339C76.8671 23.101 76.9091 22.919 76.9931 22.793C77.0771 22.667 77.1611 22.555 77.2451 22.457C77.3291 22.345 77.3711 22.205 77.3711 22.037C77.3711 21.799 77.2591 21.631 77.0351 21.533C76.8111 21.421 76.4821 21.365 76.0481 21.365C75.5021 21.365 75.0611 21.484 74.7251 21.722C74.3891 21.96 74.1441 22.401 73.9901 23.045C73.8361 23.675 73.7591 24.592 73.7591 25.796C73.7591 26.93 73.8291 27.812 73.9691 28.442C74.1091 29.072 74.3401 29.513 74.6621 29.765C74.9841 30.003 75.4181 30.122 75.9641 30.122C76.7341 30.122 77.3711 29.912 77.8751 29.492C78.3931 29.072 78.8411 28.365 79.2191 27.371H79.8071C79.5411 28.379 79.0721 29.198 78.4001 29.828C77.7421 30.444 76.9091 30.752 75.9011 30.752ZM83.2067 30.185V21.575H85.5167V30.185H83.2067ZM81.5477 30.5V29.975H87.1967V30.5H81.5477ZM81.3377 21.764V21.239H85.5167V21.764H81.3377ZM84.3197 17.942C83.9417 17.942 83.6127 17.809 83.3327 17.543C83.0667 17.263 82.9337 16.934 82.9337 16.556C82.9337 16.178 83.0667 15.856 83.3327 15.59C83.6127 15.31 83.9417 15.17 84.3197 15.17C84.6977 15.17 85.0197 15.31 85.2857 15.59C85.5657 15.856 85.7057 16.178 85.7057 16.556C85.7057 16.934 85.5657 17.263 85.2857 17.543C85.0197 17.809 84.6977 17.942 84.3197 17.942ZM93.8553 30.752C93.1833 30.752 92.5533 30.612 91.9653 30.332C91.3773 30.052 90.8593 29.674 90.4113 29.198C89.9633 28.722 89.6133 28.19 89.3613 27.602C89.1093 27 88.9833 26.384 88.9833 25.754C88.9833 25.138 89.1093 24.536 89.3613 23.948C89.6133 23.36 89.9633 22.828 90.4113 22.352C90.8593 21.876 91.3913 21.498 92.0073 21.218C92.6233 20.938 93.2953 20.798 94.0233 20.798C94.6393 20.798 95.1993 20.903 95.7033 21.113C96.2213 21.309 96.6273 21.589 96.9213 21.953C97.2293 22.303 97.3833 22.716 97.3833 23.192C97.3833 23.598 97.2643 23.92 97.0263 24.158C96.7883 24.396 96.4873 24.515 96.1233 24.515C95.7873 24.515 95.4863 24.417 95.2203 24.221C94.9543 24.025 94.8213 23.731 94.8213 23.339C94.8213 23.101 94.8633 22.919 94.9473 22.793C95.0313 22.667 95.1153 22.555 95.1993 22.457C95.2833 22.345 95.3253 22.205 95.3253 22.037C95.3253 21.799 95.2133 21.631 94.9893 21.533C94.7653 21.421 94.4363 21.365 94.0023 21.365C93.4563 21.365 93.0153 21.484 92.6793 21.722C92.3433 21.96 92.0983 22.401 91.9443 23.045C91.7903 23.675 91.7133 24.592 91.7133 25.796C91.7133 26.93 91.7833 27.812 91.9233 28.442C92.0633 29.072 92.2943 29.513 92.6163 29.765C92.9383 30.003 93.3723 30.122 93.9183 30.122C94.6883 30.122 95.3253 29.912 95.8293 29.492C96.3473 29.072 96.7953 28.365 97.1733 27.371H97.7613C97.4953 28.379 97.0263 29.198 96.3543 29.828C95.6963 30.444 94.8633 30.752 93.8553 30.752ZM100.699 30.185V15.002H103.009V30.185H100.699ZM99.0398 30.5V29.975H104.689V30.5H99.0398ZM99.0398 15.191V14.666H103.009V15.191H99.0398ZM111.092 30.752C110.406 30.752 109.762 30.612 109.16 30.332C108.572 30.052 108.047 29.681 107.585 29.219C107.137 28.743 106.787 28.211 106.535 27.623C106.283 27.021 106.157 26.405 106.157 25.775C106.157 25.145 106.283 24.536 106.535 23.948C106.787 23.346 107.137 22.814 107.585 22.352C108.047 21.876 108.572 21.498 109.16 21.218C109.762 20.938 110.406 20.798 111.092 20.798C111.778 20.798 112.415 20.938 113.003 21.218C113.605 21.498 114.13 21.876 114.578 22.352C115.04 22.814 115.397 23.346 115.649 23.948C115.901 24.536 116.027 25.145 116.027 25.775C116.027 26.405 115.901 27.021 115.649 27.623C115.397 28.211 115.04 28.743 114.578 29.219C114.13 29.681 113.605 30.052 113.003 30.332C112.415 30.612 111.778 30.752 111.092 30.752ZM111.092 30.122C111.624 30.122 112.051 30.003 112.373 29.765C112.695 29.527 112.926 29.1 113.066 28.484C113.22 27.854 113.297 26.951 113.297 25.775C113.297 24.599 113.22 23.696 113.066 23.066C112.926 22.436 112.695 22.009 112.373 21.785C112.051 21.547 111.624 21.428 111.092 21.428C110.56 21.428 110.133 21.547 109.811 21.785C109.489 22.009 109.251 22.436 109.097 23.066C108.957 23.696 108.887 24.599 108.887 25.775C108.887 26.951 108.957 27.854 109.097 28.484C109.251 29.1 109.489 29.527 109.811 29.765C110.133 30.003 110.56 30.122 111.092 30.122Z" fill="#004643"/>
<rect x="1.5" y="1.5" width="156" height="46" rx="7.5" stroke="#004643" stroke-width="3"/>
</svg>
