<svg width="159" height="49" viewBox="0 0 159 49" fill="none" xmlns="http://www.w3.org/2000/svg">
<path d="M33 25.544V24.704H43.458V25.544H33ZM34.029 20.525V19.685H44.487V20.525H34.029ZM34.617 30.5L37.137 14.477H38.145L35.625 30.5H34.617ZM39.174 30.5L41.694 14.477H42.702L40.182 30.5H39.174ZM49.6929 30.752C49.1189 30.752 48.5589 30.654 48.0129 30.458C47.4809 30.262 47.0469 30.003 46.7109 29.681L46.3959 30.5H45.7869V27.287H46.4589L46.5639 27.686C46.7599 28.442 47.1099 29.016 47.6139 29.408C48.1319 29.8 48.8179 29.996 49.6719 29.996C50.3719 29.996 50.8619 29.877 51.1419 29.639C51.4219 29.387 51.5619 29.03 51.5619 28.568C51.5619 28.106 51.3729 27.77 50.9949 27.56C50.6169 27.336 50.0359 27.14 49.2519 26.972C48.5799 26.832 47.9919 26.657 47.4879 26.447C46.9979 26.223 46.6129 25.915 46.3329 25.523C46.0529 25.117 45.9129 24.564 45.9129 23.864C45.9129 22.87 46.1999 22.114 46.7739 21.596C47.3479 21.064 48.1669 20.798 49.2309 20.798C49.8329 20.798 50.3509 20.882 50.7849 21.05C51.2329 21.218 51.5479 21.449 51.7299 21.743L51.9609 21.05H52.5069V24.095H51.8559L51.7929 23.78C51.6389 22.996 51.3659 22.429 50.9739 22.079C50.5959 21.729 50.0289 21.554 49.2729 21.554C48.6009 21.554 48.0969 21.687 47.7609 21.953C47.4389 22.205 47.2779 22.562 47.2779 23.024C47.2779 23.248 47.3409 23.451 47.4669 23.633C47.5929 23.801 47.8239 23.955 48.1599 24.095C48.5099 24.235 48.9929 24.375 49.6089 24.515C50.3229 24.669 50.9249 24.865 51.4149 25.103C51.9049 25.341 52.2759 25.656 52.5279 26.048C52.7939 26.44 52.9269 26.951 52.9269 27.581C52.9269 28.547 52.6329 29.317 52.0449 29.891C51.4569 30.465 50.6729 30.752 49.6929 30.752ZM59.9929 30.752C59.3209 30.752 58.6909 30.612 58.1029 30.332C57.5149 30.052 56.9969 29.674 56.5489 29.198C56.1009 28.722 55.7509 28.19 55.4989 27.602C55.2469 27 55.1209 26.384 55.1209 25.754C55.1209 25.138 55.2469 24.536 55.4989 23.948C55.7509 23.36 56.1009 22.828 56.5489 22.352C56.9969 21.876 57.5289 21.498 58.1449 21.218C58.7609 20.938 59.4329 20.798 60.1609 20.798C60.7769 20.798 61.3369 20.903 61.8409 21.113C62.3589 21.309 62.7649 21.589 63.0589 21.953C63.3669 22.303 63.5209 22.716 63.5209 23.192C63.5209 23.598 63.4019 23.92 63.1639 24.158C62.9259 24.396 62.6249 24.515 62.2609 24.515C61.9249 24.515 61.6239 24.417 61.3579 24.221C61.0919 24.025 60.9589 23.731 60.9589 23.339C60.9589 23.101 61.0009 22.919 61.0849 22.793C61.1689 22.667 61.2529 22.555 61.3369 22.457C61.4209 22.345 61.4629 22.205 61.4629 22.037C61.4629 21.799 61.3509 21.631 61.1269 21.533C60.9029 21.421 60.5739 21.365 60.1399 21.365C59.5939 21.365 59.1529 21.484 58.8169 21.722C58.4809 21.96 58.2359 22.401 58.0819 23.045C57.9279 23.675 57.8509 24.592 57.8509 25.796C57.8509 26.93 57.9209 27.812 58.0609 28.442C58.2009 29.072 58.4319 29.513 58.7539 29.765C59.0759 30.003 59.5099 30.122 60.0559 30.122C60.8259 30.122 61.4629 29.912 61.9669 29.492C62.4849 29.072 62.9329 28.365 63.3109 27.371H63.8989C63.6329 28.379 63.1639 29.198 62.4919 29.828C61.8339 30.444 61.0009 30.752 59.9929 30.752ZM68.3274 30.752C67.5714 30.752 66.9554 30.535 66.4794 30.101C66.0034 29.667 65.7654 29.1 65.7654 28.4C65.7654 27.728 65.9894 27.154 66.4374 26.678C66.8994 26.202 67.5504 25.838 68.3904 25.586C69.2304 25.32 70.2244 25.187 71.3724 25.187V22.625C71.3724 22.261 71.2324 21.974 70.9524 21.764C70.6724 21.554 70.2874 21.449 69.7974 21.449C69.3774 21.449 69.0344 21.519 68.7684 21.659C68.5024 21.799 68.3694 21.981 68.3694 22.205C68.3694 22.345 68.4184 22.471 68.5164 22.583C68.6144 22.695 68.6634 22.87 68.6634 23.108C68.6634 23.402 68.5514 23.647 68.3274 23.843C68.1174 24.025 67.8444 24.116 67.5084 24.116C67.1724 24.116 66.9064 24.018 66.7104 23.822C66.5144 23.612 66.4164 23.353 66.4164 23.045C66.4164 22.625 66.5844 22.247 66.9204 21.911C67.2564 21.561 67.7114 21.288 68.2854 21.092C68.8594 20.896 69.5034 20.798 70.2174 20.798C71.2394 20.798 72.0724 21.001 72.7164 21.407C73.3604 21.799 73.6824 22.317 73.6824 22.961V29.345C73.6824 29.485 73.7244 29.604 73.8084 29.702C73.9064 29.786 74.0184 29.828 74.1444 29.828C74.2704 29.828 74.4174 29.765 74.5854 29.639C74.7534 29.499 74.9634 29.289 75.2154 29.009L75.5094 29.345C74.8514 30.283 74.1164 30.752 73.3044 30.752C72.8144 30.752 72.4084 30.619 72.0864 30.353C71.7784 30.073 71.5684 29.688 71.4564 29.198H71.3724C71.1064 29.646 70.6864 30.017 70.1124 30.311C69.5384 30.605 68.9434 30.752 68.3274 30.752ZM69.5874 29.597C70.1194 29.597 70.5464 29.401 70.8684 29.009C71.2044 28.603 71.3724 28.078 71.3724 27.434V25.733C70.3224 25.733 69.5314 25.929 68.9994 26.321C68.4674 26.699 68.2014 27.259 68.2014 28.001C68.2014 28.505 68.3204 28.897 68.5584 29.177C68.8104 29.457 69.1534 29.597 69.5874 29.597ZM89.9335 30.185V23.087C89.9335 22.037 89.5345 21.512 88.7365 21.512C88.2885 21.512 87.8755 21.701 87.4975 22.079C87.1195 22.457 86.8185 22.975 86.5945 23.633C86.3705 24.277 86.2585 25.012 86.2585 25.838L85.8385 22.793H86.3425C86.6225 22.219 87.0145 21.743 87.5185 21.365C88.0365 20.987 88.6875 20.798 89.4715 20.798C90.2835 20.798 90.9485 21.022 91.4665 21.47C91.9845 21.904 92.2435 22.443 92.2435 23.087V30.185H89.9335ZM76.3045 30.5V29.975H81.6385V30.5H76.3045ZM77.9635 30.185V21.386H80.2735V30.185H77.9635ZM82.3525 30.5V29.975H87.6865V30.5H82.3525ZM76.3045 21.575V21.05H80.2735V21.575H76.3045ZM83.9485 30.185V23.087C83.9485 22.037 83.5495 21.512 82.7515 21.512C82.3035 21.512 81.8905 21.701 81.5125 22.079C81.1345 22.457 80.8335 22.975 80.6095 23.633C80.3855 24.277 80.2735 25.012 80.2735 25.838L79.8535 22.793H80.3575C80.6375 22.219 81.0295 21.743 81.5335 21.365C82.0515 20.987 82.7025 20.798 83.4865 20.798C84.2985 20.798 84.9635 21.022 85.4815 21.47C85.9995 21.904 86.2585 22.443 86.2585 23.087V30.185H83.9485ZM88.3375 30.5V29.975H93.6715V30.5H88.3375ZM101.273 30.752C100.629 30.752 100.062 30.612 99.572 30.332C99.082 30.052 98.718 29.702 98.48 29.282H97.976L98.396 26.09C98.396 27.448 98.648 28.449 99.152 29.093C99.656 29.723 100.286 30.038 101.042 30.038C101.434 30.038 101.749 29.926 101.987 29.702C102.225 29.478 102.393 29.058 102.491 28.442C102.603 27.826 102.659 26.944 102.659 25.796C102.659 24.634 102.603 23.745 102.491 23.129C102.379 22.513 102.204 22.093 101.966 21.869C101.728 21.631 101.413 21.512 101.021 21.512C100.265 21.512 99.635 21.827 99.131 22.457C98.641 23.087 98.396 24.088 98.396 25.46L97.976 22.268H98.48C98.718 21.848 99.082 21.498 99.572 21.218C100.076 20.938 100.65 20.798 101.294 20.798C101.994 20.798 102.652 21.008 103.268 21.428C103.884 21.834 104.381 22.415 104.759 23.171C105.151 23.913 105.347 24.781 105.347 25.775C105.347 26.769 105.151 27.644 104.759 28.4C104.381 29.142 103.877 29.723 103.247 30.143C102.631 30.549 101.973 30.752 101.273 30.752ZM94.427 30.5V29.975H98.396V30.5H94.427ZM96.086 30.185V15.002H98.396V30.185H96.086ZM94.427 15.191V14.666H98.396V15.191H94.427ZM108.924 30.185V21.575H111.234V30.185H108.924ZM107.265 30.5V29.975H112.914V30.5H107.265ZM107.055 21.764V21.239H111.234V21.764H107.055ZM110.037 17.942C109.659 17.942 109.33 17.809 109.05 17.543C108.784 17.263 108.651 16.934 108.651 16.556C108.651 16.178 108.784 15.856 109.05 15.59C109.33 15.31 109.659 15.17 110.037 15.17C110.415 15.17 110.737 15.31 111.003 15.59C111.283 15.856 111.423 16.178 111.423 16.556C111.423 16.934 111.283 17.263 111.003 17.543C110.737 17.809 110.415 17.942 110.037 17.942ZM119.572 30.752C118.886 30.752 118.242 30.612 117.64 30.332C117.052 30.052 116.527 29.681 116.065 29.219C115.617 28.743 115.267 28.211 115.015 27.623C114.763 27.021 114.637 26.405 114.637 25.775C114.637 25.145 114.763 24.536 115.015 23.948C115.267 23.346 115.617 22.814 116.065 22.352C116.527 21.876 117.052 21.498 117.64 21.218C118.242 20.938 118.886 20.798 119.572 20.798C120.258 20.798 120.895 20.938 121.483 21.218C122.085 21.498 122.61 21.876 123.058 22.352C123.52 22.814 123.877 23.346 124.129 23.948C124.381 24.536 124.507 25.145 124.507 25.775C124.507 26.405 124.381 27.021 124.129 27.623C123.877 28.211 123.52 28.743 123.058 29.219C122.61 29.681 122.085 30.052 121.483 30.332C120.895 30.612 120.258 30.752 119.572 30.752ZM119.572 30.122C120.104 30.122 120.531 30.003 120.853 29.765C121.175 29.527 121.406 29.1 121.546 28.484C121.7 27.854 121.777 26.951 121.777 25.775C121.777 24.599 121.7 23.696 121.546 23.066C121.406 22.436 121.175 22.009 120.853 21.785C120.531 21.547 120.104 21.428 119.572 21.428C119.04 21.428 118.613 21.547 118.291 21.785C117.969 22.009 117.731 22.436 117.577 23.066C117.437 23.696 117.367 24.599 117.367 25.775C117.367 26.951 117.437 27.854 117.577 28.484C117.731 29.1 117.969 29.527 118.291 29.765C118.613 30.003 119.04 30.122 119.572 30.122Z" fill="#004643"/>
<rect x="1.5" y="1.5" width="156" height="46" rx="7.5" stroke="#004643" stroke-width="3"/>
</svg>
