<svg width="169" height="49" viewBox="0 0 169 49" fill="none" xmlns="http://www.w3.org/2000/svg">
<path d="M38.0005 25.5438V24.7038H48.4585V25.5438H38.0005ZM39.0295 20.5248V19.6848H49.4875V20.5248H39.0295ZM39.6175 30.4998L42.1375 14.4768H43.1455L40.6255 30.4998H39.6175ZM44.1745 30.4998L46.6945 14.4768H47.7025L45.1825 30.4998H44.1745ZM54.6934 30.7518C54.1194 30.7518 53.5594 30.6538 53.0134 30.4578C52.4814 30.2618 52.0474 30.0028 51.7114 29.6808L51.3964 30.4998H50.7874V27.2868H51.4594L51.5644 27.6858C51.7604 28.4418 52.1104 29.0158 52.6144 29.4078C53.1324 29.7998 53.8184 29.9958 54.6724 29.9958C55.3724 29.9958 55.8624 29.8768 56.1424 29.6388C56.4224 29.3868 56.5624 29.0298 56.5624 28.5678C56.5624 28.1058 56.3734 27.7698 55.9954 27.5598C55.6174 27.3358 55.0364 27.1398 54.2524 26.9718C53.5804 26.8318 52.9924 26.6568 52.4884 26.4468C51.9984 26.2228 51.6134 25.9148 51.3334 25.5228C51.0534 25.1168 50.9134 24.5638 50.9134 23.8638C50.9134 22.8698 51.2004 22.1138 51.7744 21.5958C52.3484 21.0638 53.1674 20.7978 54.2314 20.7978C54.8334 20.7978 55.3514 20.8818 55.7854 21.0498C56.2334 21.2178 56.5484 21.4488 56.7304 21.7428L56.9614 21.0498H57.5074V24.0948H56.8564L56.7934 23.7798C56.6394 22.9958 56.3664 22.4288 55.9744 22.0788C55.5964 21.7288 55.0294 21.5538 54.2734 21.5538C53.6014 21.5538 53.0974 21.6868 52.7614 21.9528C52.4394 22.2048 52.2784 22.5618 52.2784 23.0238C52.2784 23.2478 52.3414 23.4508 52.4674 23.6328C52.5934 23.8008 52.8244 23.9548 53.1604 24.0948C53.5104 24.2348 53.9934 24.3748 54.6094 24.5148C55.3234 24.6688 55.9254 24.8648 56.4154 25.1028C56.9054 25.3408 57.2764 25.6558 57.5284 26.0478C57.7944 26.4398 57.9274 26.9508 57.9274 27.5808C57.9274 28.5468 57.6334 29.3168 57.0454 29.8908C56.4574 30.4648 55.6734 30.7518 54.6934 30.7518ZM64.9934 30.7518C64.3214 30.7518 63.6914 30.6118 63.1034 30.3318C62.5154 30.0518 61.9974 29.6738 61.5494 29.1978C61.1014 28.7218 60.7514 28.1898 60.4994 27.6018C60.2474 26.9998 60.1214 26.3838 60.1214 25.7538C60.1214 25.1378 60.2474 24.5358 60.4994 23.9478C60.7514 23.3598 61.1014 22.8278 61.5494 22.3518C61.9974 21.8758 62.5294 21.4978 63.1454 21.2178C63.7614 20.9378 64.4334 20.7978 65.1614 20.7978C65.7774 20.7978 66.3374 20.9028 66.8414 21.1128C67.3594 21.3088 67.7654 21.5888 68.0594 21.9528C68.3674 22.3028 68.5214 22.7158 68.5214 23.1918C68.5214 23.5978 68.4024 23.9198 68.1644 24.1578C67.9264 24.3958 67.6254 24.5148 67.2614 24.5148C66.9254 24.5148 66.6244 24.4168 66.3584 24.2208C66.0924 24.0248 65.9594 23.7308 65.9594 23.3388C65.9594 23.1008 66.0014 22.9188 66.0854 22.7928C66.1694 22.6668 66.2534 22.5548 66.3374 22.4568C66.4214 22.3448 66.4634 22.2048 66.4634 22.0368C66.4634 21.7988 66.3514 21.6308 66.1274 21.5328C65.9034 21.4208 65.5744 21.3648 65.1404 21.3648C64.5944 21.3648 64.1534 21.4838 63.8174 21.7218C63.4814 21.9598 63.2364 22.4008 63.0824 23.0448C62.9284 23.6748 62.8514 24.5918 62.8514 25.7958C62.8514 26.9298 62.9214 27.8118 63.0614 28.4418C63.2014 29.0718 63.4324 29.5128 63.7544 29.7648C64.0764 30.0028 64.5104 30.1218 65.0564 30.1218C65.8264 30.1218 66.4634 29.9118 66.9674 29.4918C67.4854 29.0718 67.9334 28.3648 68.3114 27.3708H68.8994C68.6334 28.3788 68.1644 29.1978 67.4924 29.8278C66.8344 30.4438 66.0014 30.7518 64.9934 30.7518ZM73.3279 30.7518C72.5719 30.7518 71.9559 30.5348 71.4799 30.1008C71.0039 29.6668 70.7659 29.0998 70.7659 28.3998C70.7659 27.7278 70.9899 27.1538 71.4379 26.6778C71.8999 26.2018 72.5509 25.8378 73.3909 25.5858C74.2309 25.3198 75.2249 25.1868 76.3729 25.1868V22.6248C76.3729 22.2608 76.2329 21.9738 75.9529 21.7638C75.6729 21.5538 75.2879 21.4488 74.7979 21.4488C74.3779 21.4488 74.0349 21.5188 73.7689 21.6588C73.5029 21.7988 73.3699 21.9808 73.3699 22.2048C73.3699 22.3448 73.4189 22.4708 73.5169 22.5828C73.6149 22.6948 73.6639 22.8698 73.6639 23.1078C73.6639 23.4018 73.5519 23.6468 73.3279 23.8428C73.1179 24.0248 72.8449 24.1158 72.5089 24.1158C72.1729 24.1158 71.9069 24.0178 71.7109 23.8218C71.5149 23.6118 71.4169 23.3528 71.4169 23.0448C71.4169 22.6248 71.5849 22.2468 71.9209 21.9108C72.2569 21.5608 72.7119 21.2878 73.2859 21.0918C73.8599 20.8958 74.5039 20.7978 75.2179 20.7978C76.2399 20.7978 77.0729 21.0008 77.7169 21.4068C78.3609 21.7988 78.6829 22.3168 78.6829 22.9608V29.3448C78.6829 29.4848 78.7249 29.6038 78.8089 29.7018C78.9069 29.7858 79.0189 29.8278 79.1449 29.8278C79.2709 29.8278 79.4179 29.7648 79.5859 29.6388C79.7539 29.4988 79.9639 29.2888 80.2159 29.0088L80.5099 29.3448C79.8519 30.2828 79.1169 30.7518 78.3049 30.7518C77.8149 30.7518 77.4089 30.6188 77.0869 30.3528C76.7789 30.0728 76.5689 29.6878 76.4569 29.1978H76.3729C76.1069 29.6458 75.6869 30.0168 75.1129 30.3108C74.5389 30.6048 73.9439 30.7518 73.3279 30.7518ZM74.5879 29.5968C75.1199 29.5968 75.5469 29.4008 75.8689 29.0088C76.2049 28.6028 76.3729 28.0778 76.3729 27.4338V25.7328C75.3229 25.7328 74.5319 25.9288 73.9999 26.3208C73.4679 26.6988 73.2019 27.2588 73.2019 28.0008C73.2019 28.5048 73.3209 28.8968 73.5589 29.1768C73.8109 29.4568 74.1539 29.5968 74.5879 29.5968ZM94.934 30.1848V23.0868C94.934 22.0368 94.535 21.5118 93.7369 21.5118C93.2889 21.5118 92.8759 21.7008 92.4979 22.0788C92.12 22.4568 91.819 22.9748 91.5949 23.6328C91.371 24.2768 91.259 25.0118 91.259 25.8378L90.839 22.7928H91.3429C91.6229 22.2188 92.015 21.7428 92.519 21.3648C93.037 20.9868 93.688 20.7978 94.472 20.7978C95.2839 20.7978 95.9489 21.0218 96.4669 21.4698C96.9849 21.9038 97.2439 22.4428 97.2439 23.0868V30.1848H94.934ZM81.3049 30.4998V29.9748H86.6389V30.4998H81.3049ZM82.9639 30.1848V21.3858H85.2739V30.1848H82.9639ZM87.3529 30.4998V29.9748H92.6869V30.4998H87.3529ZM81.3049 21.5748V21.0498H85.2739V21.5748H81.3049ZM88.949 30.1848V23.0868C88.949 22.0368 88.5499 21.5118 87.7519 21.5118C87.3039 21.5118 86.8909 21.7008 86.5129 22.0788C86.1349 22.4568 85.8339 22.9748 85.6099 23.6328C85.3859 24.2768 85.2739 25.0118 85.2739 25.8378L84.8539 22.7928H85.3579C85.6379 22.2188 86.0299 21.7428 86.5339 21.3648C87.0519 20.9868 87.7029 20.7978 88.4869 20.7978C89.2989 20.7978 89.9639 21.0218 90.4819 21.4698C91 21.9038 91.259 22.4428 91.259 23.0868V30.1848H88.949ZM93.3379 30.4998V29.9748H98.672V30.4998H93.3379ZM106.273 30.7518C105.629 30.7518 105.062 30.6118 104.572 30.3318C104.082 30.0518 103.718 29.7018 103.48 29.2818H102.976L103.396 26.0898C103.396 27.4478 103.648 28.4488 104.152 29.0928C104.656 29.7228 105.286 30.0378 106.042 30.0378C106.434 30.0378 106.749 29.9258 106.987 29.7018C107.225 29.4778 107.393 29.0578 107.491 28.4418C107.603 27.8258 107.659 26.9438 107.659 25.7958C107.659 24.6338 107.603 23.7448 107.491 23.1288C107.379 22.5128 107.204 22.0928 106.966 21.8688C106.728 21.6308 106.413 21.5118 106.021 21.5118C105.265 21.5118 104.635 21.8268 104.131 22.4568C103.641 23.0868 103.396 24.0878 103.396 25.4598L102.976 22.2678H103.48C103.718 21.8478 104.082 21.4978 104.572 21.2178C105.076 20.9378 105.65 20.7978 106.294 20.7978C106.994 20.7978 107.652 21.0078 108.268 21.4278C108.884 21.8338 109.381 22.4148 109.759 23.1708C110.151 23.9128 110.347 24.7808 110.347 25.7748C110.347 26.7688 110.151 27.6438 109.759 28.3998C109.381 29.1418 108.877 29.7228 108.247 30.1428C107.631 30.5488 106.973 30.7518 106.273 30.7518ZM99.4275 30.4998V29.9748H103.396V30.4998H99.4275ZM101.086 30.1848V15.0018H103.396V30.1848H101.086ZM99.4275 15.1908V14.6658H103.396V15.1908H99.4275ZM113.924 30.1848V21.5748H116.234V30.1848H113.924ZM112.265 30.4998V29.9748H117.914V30.4998H112.265ZM112.055 21.7638V21.2388H116.234V21.7638H112.055ZM115.037 17.9418C114.659 17.9418 114.33 17.8088 114.05 17.5428C113.784 17.2628 113.651 16.9338 113.651 16.5558C113.651 16.1778 113.784 15.8558 114.05 15.5898C114.33 15.3098 114.659 15.1698 115.037 15.1698C115.415 15.1698 115.737 15.3098 116.003 15.5898C116.283 15.8558 116.423 16.1778 116.423 16.5558C116.423 16.9338 116.283 17.2628 116.003 17.5428C115.737 17.8088 115.415 17.9418 115.037 17.9418ZM124.573 30.7518C123.887 30.7518 123.243 30.6118 122.641 30.3318C122.053 30.0518 121.528 29.6808 121.066 29.2188C120.618 28.7428 120.268 28.2108 120.016 27.6228C119.764 27.0208 119.638 26.4048 119.638 25.7748C119.638 25.1448 119.764 24.5358 120.016 23.9478C120.268 23.3458 120.618 22.8138 121.066 22.3518C121.528 21.8758 122.053 21.4978 122.641 21.2178C123.243 20.9378 123.887 20.7978 124.573 20.7978C125.259 20.7978 125.896 20.9378 126.484 21.2178C127.086 21.4978 127.611 21.8758 128.059 22.3518C128.521 22.8138 128.878 23.3458 129.13 23.9478C129.382 24.5358 129.508 25.1448 129.508 25.7748C129.508 26.4048 129.382 27.0208 129.13 27.6228C128.878 28.2108 128.521 28.7428 128.059 29.2188C127.611 29.6808 127.086 30.0518 126.484 30.3318C125.896 30.6118 125.259 30.7518 124.573 30.7518ZM124.573 30.1218C125.105 30.1218 125.532 30.0028 125.854 29.7648C126.176 29.5268 126.407 29.0998 126.547 28.4838C126.701 27.8538 126.778 26.9508 126.778 25.7748C126.778 24.5988 126.701 23.6958 126.547 23.0658C126.407 22.4358 126.176 22.0088 125.854 21.7848C125.532 21.5468 125.105 21.4278 124.573 21.4278C124.041 21.4278 123.614 21.5468 123.292 21.7848C122.97 22.0088 122.732 22.4358 122.578 23.0658C122.438 23.6958 122.368 24.5988 122.368 25.7748C122.368 26.9508 122.438 27.8538 122.578 28.4838C122.732 29.0998 122.97 29.5268 123.292 29.7648C123.614 30.0028 124.041 30.1218 124.573 30.1218Z" fill="white"/>
<rect x="1.50049" y="1.49976" width="166" height="46" rx="7.5" stroke="white" stroke-width="3"/>
</svg>
