<svg width="166" height="49" viewBox="0 0 166 49" fill="none" xmlns="http://www.w3.org/2000/svg">
<path d="M31.0295 20.5377H33.1925L32.5205 24.7167H30.0005V25.5567H32.3945L31.6175 30.5127H32.6255L33.4025 25.5567H36.9515L36.1745 30.5127H37.1825L37.9595 25.5567H40.4585V24.7167H38.0855L38.7575 20.5377H41.4875V19.6977H38.8835L39.7025 14.4897H38.6945L37.8755 19.6977H34.3265L35.1455 14.4897H34.1375L33.3185 19.6977H31.0295V20.5377ZM34.2005 20.5377H37.7495L37.0775 24.7167H33.5285L34.2005 20.5377ZM45.9584 30.7647H46.5674L48.9824 24.3177H49.0664L51.3554 30.7647H51.9644L55.1354 21.5877H56.6474V21.0627H52.8464V21.5877H54.4004L52.5314 27.2367H52.4474L50.2214 21.0627H49.4234L47.2394 27.2367H47.1554L45.3074 21.5877H46.5044V21.0627H41.4224V21.5877H42.7244L45.9584 30.7647ZM57.0828 25.7877C57.0828 28.3077 59.2878 30.7647 62.0178 30.7647C64.7478 30.7647 66.9528 28.3077 66.9528 25.7877C66.9528 23.2677 64.7478 20.8107 62.0178 20.8107C59.2878 20.8107 57.0828 23.2677 57.0828 25.7877ZM59.8128 25.7877C59.8128 22.2597 60.4218 21.4407 62.0178 21.4407C63.6138 21.4407 64.2228 22.2597 64.2228 25.7877C64.2228 29.3157 63.6138 30.1347 62.0178 30.1347C60.4218 30.1347 59.8128 29.3157 59.8128 25.7877ZM68.7068 21.5877H70.3658V29.9877H68.7068V30.5127H74.5658V29.9877H72.6758V25.2207C72.6758 23.4777 73.5368 22.0287 74.1038 22.0287C74.3768 22.0287 74.4398 22.1547 74.4398 22.3017C74.4398 22.4487 74.3768 22.5537 74.3768 22.7217C74.3768 23.2467 74.9018 23.5617 75.4268 23.5617C76.0568 23.5617 76.6868 23.1627 76.6868 22.3017C76.6868 21.3567 76.1198 20.8107 75.2378 20.8107C74.4608 20.8107 73.4528 21.2097 72.7598 22.7217H72.6758V21.0627H68.7068V21.5877ZM77.3991 15.2037H79.0581V29.9877H77.3991V30.5127H82.5231V29.9877H81.3681V14.6787H77.3991V15.2037ZM83.1321 21.5877H85.1901L81.5151 25.2837L85.0851 29.9877H83.8251V30.5127H88.9911V29.9877H88.0881L83.5101 24.1917L86.0931 21.5877H88.0041V21.0627H83.1321V21.5877ZM94.1886 30.7647C96.1416 30.7647 97.4226 29.5257 97.4226 27.5937C97.4226 25.7037 96.2256 25.0107 94.1046 24.5277C92.2356 24.1077 91.7736 23.7297 91.7736 23.0367C91.7736 22.1127 92.4246 21.5667 93.7686 21.5667C95.2806 21.5667 95.9736 22.2387 96.2886 23.7927L96.3516 24.1077H97.0026V21.0627H96.4566L96.2256 21.7557C95.8686 21.1677 94.9236 20.8107 93.7266 20.8107C91.6056 20.8107 90.4086 21.9027 90.4086 23.8767C90.4086 25.9767 91.7316 26.5647 93.7476 26.9847C95.3226 27.3207 96.0576 27.6567 96.0576 28.5807C96.0576 29.5047 95.5536 30.0087 94.1676 30.0087C92.4456 30.0087 91.4586 29.2107 91.0596 27.6987L90.9546 27.2997H90.2826V30.5127H90.8916L91.2066 29.6937C91.8786 30.3447 93.0336 30.7647 94.1886 30.7647ZM99.0076 15.2037H100.667V29.9877H99.0076V30.5127H104.342V29.9877H102.977V25.6827C102.977 23.3097 104.153 21.5247 105.581 21.5247C106.421 21.5247 106.904 22.0497 106.904 23.0997V29.9877H105.308V30.5127H110.642V29.9877H109.214V23.0997C109.214 21.8187 108.017 20.8107 106.316 20.8107C104.657 20.8107 103.67 21.6507 103.061 22.8057H102.977V14.6787H99.0076V15.2037ZM112.273 25.7877C112.273 28.3077 114.478 30.7647 117.208 30.7647C119.938 30.7647 122.143 28.3077 122.143 25.7877C122.143 23.2677 119.938 20.8107 117.208 20.8107C114.478 20.8107 112.273 23.2677 112.273 25.7877ZM115.003 25.7877C115.003 22.2597 115.612 21.4407 117.208 21.4407C118.804 21.4407 119.413 22.2597 119.413 25.7877C119.413 29.3157 118.804 30.1347 117.208 30.1347C115.612 30.1347 115.003 29.3157 115.003 25.7877ZM123.498 21.5877H125.157V36.5817H123.708V37.1067H129.567V36.5817H127.467V29.2947H127.551C128.013 30.1347 129.042 30.7647 130.344 30.7647C132.444 30.7647 134.418 28.7697 134.418 25.7877C134.418 22.8057 132.465 20.8107 130.365 20.8107C129.063 20.8107 128.013 21.4407 127.551 22.2807H127.467V21.0627H123.498V21.5877ZM130.113 30.0507C128.643 30.0507 127.467 28.8957 127.467 26.3127V25.2837C127.467 22.7007 128.622 21.5247 130.092 21.5247C131.268 21.5247 131.73 22.3437 131.73 25.8087C131.73 29.2737 131.289 30.0507 130.113 30.0507Z" fill="white"/>
<rect x="1.50049" y="2.49048" width="163" height="44.0444" rx="7.5" stroke="white" stroke-width="3"/>
</svg>
