<svg width="159" height="49" viewBox="0 0 159 49" fill="none" xmlns="http://www.w3.org/2000/svg">
<path d="M26.5 25.544V24.704H36.958V25.544H26.5ZM27.529 20.525V19.685H37.987V20.525H27.529ZM28.117 30.5L30.637 14.477H31.645L29.125 30.5H28.117ZM32.674 30.5L35.194 14.477H36.202L33.682 30.5H32.674ZM42.4579 30.752L39.2239 21.575H37.9219V21.05H43.0039V21.575H41.8069L43.6549 27.224H43.7389L45.9229 21.05H46.7209L48.9469 27.224H49.0309L50.8999 21.575H49.3459V21.05H53.1469V21.575H51.6349L48.4639 30.752H47.8549L45.5659 24.305H45.4819L43.0669 30.752H42.4579ZM58.5173 30.752C57.8313 30.752 57.1873 30.612 56.5853 30.332C55.9973 30.052 55.4723 29.681 55.0103 29.219C54.5623 28.743 54.2123 28.211 53.9603 27.623C53.7083 27.021 53.5823 26.405 53.5823 25.775C53.5823 25.145 53.7083 24.536 53.9603 23.948C54.2123 23.346 54.5623 22.814 55.0103 22.352C55.4723 21.876 55.9973 21.498 56.5853 21.218C57.1873 20.938 57.8313 20.798 58.5173 20.798C59.2033 20.798 59.8403 20.938 60.4283 21.218C61.0303 21.498 61.5553 21.876 62.0033 22.352C62.4653 22.814 62.8223 23.346 63.0743 23.948C63.3263 24.536 63.4523 25.145 63.4523 25.775C63.4523 26.405 63.3263 27.021 63.0743 27.623C62.8223 28.211 62.4653 28.743 62.0033 29.219C61.5553 29.681 61.0303 30.052 60.4283 30.332C59.8403 30.612 59.2033 30.752 58.5173 30.752ZM58.5173 30.122C59.0493 30.122 59.4763 30.003 59.7983 29.765C60.1203 29.527 60.3513 29.1 60.4913 28.484C60.6453 27.854 60.7223 26.951 60.7223 25.775C60.7223 24.599 60.6453 23.696 60.4913 23.066C60.3513 22.436 60.1203 22.009 59.7983 21.785C59.4763 21.547 59.0493 21.428 58.5173 21.428C57.9853 21.428 57.5583 21.547 57.2363 21.785C56.9143 22.009 56.6763 22.436 56.5223 23.066C56.3823 23.696 56.3123 24.599 56.3123 25.775C56.3123 26.951 56.3823 27.854 56.5223 28.484C56.6763 29.1 56.9143 29.527 57.2363 29.765C57.5583 30.003 57.9853 30.122 58.5173 30.122ZM65.2063 30.5V29.975H66.8653V21.575H65.2063V21.05H69.1753V22.709H69.2593C69.6093 21.953 70.0083 21.449 70.4563 21.197C70.9183 20.931 71.3453 20.798 71.7373 20.798C72.1853 20.798 72.5353 20.931 72.7873 21.197C73.0533 21.449 73.1863 21.813 73.1863 22.289C73.1863 22.723 73.0533 23.045 72.7873 23.255C72.5353 23.451 72.2483 23.549 71.9263 23.549C71.6603 23.549 71.4153 23.479 71.1913 23.339C70.9813 23.185 70.8763 22.975 70.8763 22.709C70.8763 22.625 70.8833 22.555 70.8973 22.499C70.9253 22.429 70.9393 22.359 70.9393 22.289C70.9393 22.219 70.9183 22.156 70.8763 22.1C70.8343 22.044 70.7433 22.016 70.6033 22.016C70.4213 22.016 70.2183 22.163 69.9943 22.457C69.7703 22.737 69.5743 23.122 69.4063 23.612C69.2523 24.088 69.1753 24.62 69.1753 25.208V29.975H71.0653V30.5H65.2063ZM81.7526 30.185L78.0146 25.271L79.9466 24.074L84.7556 30.185H81.7526ZM73.8986 30.5V29.975H79.0226V30.5H73.8986ZM80.3246 30.5V29.975H85.4906V30.5H80.3246ZM75.5576 30.185V15.002H77.8676V30.185H75.5576ZM78.9176 25.271H78.0146L81.8576 21.407H82.7606L78.9176 25.271ZM73.8986 15.191V14.666H77.8676V15.191H73.8986ZM79.6316 21.575V21.05H84.5036V21.575H79.6316ZM90.6881 30.752C90.1141 30.752 89.5541 30.654 89.0081 30.458C88.4761 30.262 88.0421 30.003 87.7061 29.681L87.3911 30.5H86.7821V27.287H87.4541L87.5591 27.686C87.7551 28.442 88.1051 29.016 88.6091 29.408C89.1271 29.8 89.8131 29.996 90.6671 29.996C91.3671 29.996 91.8571 29.877 92.1371 29.639C92.4171 29.387 92.5571 29.03 92.5571 28.568C92.5571 28.106 92.3681 27.77 91.9901 27.56C91.6121 27.336 91.0311 27.14 90.2471 26.972C89.5751 26.832 88.9871 26.657 88.4831 26.447C87.9931 26.223 87.6081 25.915 87.3281 25.523C87.0481 25.117 86.9081 24.564 86.9081 23.864C86.9081 22.87 87.1951 22.114 87.7691 21.596C88.3431 21.064 89.1621 20.798 90.2261 20.798C90.8281 20.798 91.3461 20.882 91.7801 21.05C92.2281 21.218 92.5431 21.449 92.7251 21.743L92.9561 21.05H93.5021V24.095H92.8511L92.7881 23.78C92.6341 22.996 92.3611 22.429 91.9691 22.079C91.5911 21.729 91.0241 21.554 90.2681 21.554C89.5961 21.554 89.0921 21.687 88.7561 21.953C88.4341 22.205 88.2731 22.562 88.2731 23.024C88.2731 23.248 88.3361 23.451 88.4621 23.633C88.5881 23.801 88.8191 23.955 89.1551 24.095C89.5051 24.235 89.9881 24.375 90.6041 24.515C91.3181 24.669 91.9201 24.865 92.4101 25.103C92.9001 25.341 93.2711 25.656 93.5231 26.048C93.7891 26.44 93.9221 26.951 93.9221 27.581C93.9221 28.547 93.6281 29.317 93.0401 29.891C92.4521 30.465 91.6681 30.752 90.6881 30.752ZM103.403 30.185V23.087C103.403 22.555 103.284 22.163 103.046 21.911C102.822 21.645 102.5 21.512 102.08 21.512C101.604 21.512 101.163 21.701 100.757 22.079C100.365 22.457 100.05 22.975 99.8122 23.633C99.5882 24.277 99.4762 25.012 99.4762 25.838L99.0562 22.793H99.5602C99.8682 22.219 100.281 21.743 100.799 21.365C101.317 20.987 101.989 20.798 102.815 20.798C103.669 20.798 104.362 21.022 104.894 21.47C105.44 21.904 105.713 22.443 105.713 23.087V30.185H103.403ZM95.5072 30.5V29.975H100.841V30.5H95.5072ZM101.807 30.5V29.975H107.141V30.5H101.807ZM97.1662 30.185V15.002H99.4762V30.185H97.1662ZM95.5072 15.191V14.666H99.4762V15.191H95.5072ZM113.708 30.752C113.022 30.752 112.378 30.612 111.776 30.332C111.188 30.052 110.663 29.681 110.201 29.219C109.753 28.743 109.403 28.211 109.151 27.623C108.899 27.021 108.773 26.405 108.773 25.775C108.773 25.145 108.899 24.536 109.151 23.948C109.403 23.346 109.753 22.814 110.201 22.352C110.663 21.876 111.188 21.498 111.776 21.218C112.378 20.938 113.022 20.798 113.708 20.798C114.394 20.798 115.031 20.938 115.619 21.218C116.221 21.498 116.746 21.876 117.194 22.352C117.656 22.814 118.013 23.346 118.265 23.948C118.517 24.536 118.643 25.145 118.643 25.775C118.643 26.405 118.517 27.021 118.265 27.623C118.013 28.211 117.656 28.743 117.194 29.219C116.746 29.681 116.221 30.052 115.619 30.332C115.031 30.612 114.394 30.752 113.708 30.752ZM113.708 30.122C114.24 30.122 114.667 30.003 114.989 29.765C115.311 29.527 115.542 29.1 115.682 28.484C115.836 27.854 115.913 26.951 115.913 25.775C115.913 24.599 115.836 23.696 115.682 23.066C115.542 22.436 115.311 22.009 114.989 21.785C114.667 21.547 114.24 21.428 113.708 21.428C113.176 21.428 112.749 21.547 112.427 21.785C112.105 22.009 111.867 22.436 111.713 23.066C111.573 23.696 111.503 24.599 111.503 25.775C111.503 26.951 111.573 27.854 111.713 28.484C111.867 29.1 112.105 29.527 112.427 29.765C112.749 30.003 113.176 30.122 113.708 30.122ZM126.844 30.752C126.2 30.752 125.633 30.612 125.143 30.332C124.653 30.052 124.289 29.702 124.051 29.282H123.547L123.967 26.09C123.967 27.448 124.219 28.449 124.723 29.093C125.227 29.723 125.857 30.038 126.613 30.038C127.005 30.038 127.32 29.926 127.558 29.702C127.796 29.478 127.964 29.058 128.062 28.442C128.174 27.826 128.23 26.944 128.23 25.796C128.23 24.634 128.174 23.745 128.062 23.129C127.95 22.513 127.775 22.093 127.537 21.869C127.299 21.631 126.984 21.512 126.592 21.512C125.836 21.512 125.206 21.827 124.702 22.457C124.212 23.087 123.967 24.088 123.967 25.46L123.547 22.268H124.051C124.289 21.848 124.653 21.498 125.143 21.218C125.647 20.938 126.221 20.798 126.865 20.798C127.565 20.798 128.223 21.008 128.839 21.428C129.455 21.834 129.952 22.415 130.33 23.171C130.722 23.913 130.918 24.781 130.918 25.775C130.918 26.769 130.722 27.644 130.33 28.4C129.952 29.142 129.448 29.723 128.818 30.143C128.202 30.549 127.544 30.752 126.844 30.752ZM120.208 37.094V36.569H126.067V37.094H120.208ZM121.657 36.779V21.386H123.967V36.779H121.657ZM119.998 21.575V21.05H123.967V21.575H119.998Z" fill="#004643"/>
<rect x="1.5" y="1.5" width="156" height="46" rx="7.5" stroke="#004643" stroke-width="3"/>
</svg>
