<svg width="390" height="111" viewBox="0 0 390 111" fill="none" xmlns="http://www.w3.org/2000/svg">
<path d="M390 7.73226C390 7.73226 345.5 -16.8005 206.5 21.531C67.5 59.8626 0 7.73226 0 7.73226V55.2632H390V7.73226Z" fill="#004643"/>
<path d="M0 102.794C0 102.794 44.5 127.327 183.5 88.9953C322.5 50.6638 390 102.794 390 102.794V55.2632H0V102.794Z" fill="#004643"/>
<path d="M0 7.73226C0 7.73226 44.5 -16.8005 183.5 21.531C322.5 59.8626 390 7.73226 390 7.73226V55.2632H0V7.73226Z" fill="#C4DCC6"/>
<path d="M390 102.794C390 102.794 345.5 127.327 206.5 88.9953C67.5 50.6638 1.45435e-05 102.794 1.45435e-05 102.794V55.2632H390V102.794Z" fill="#C4DCC6"/>
</svg>
